<svg width="138" height="50" viewBox="0 0 138 50" fill="none" xmlns="http://www.w3.org/2000/svg">
<path opacity="0.5" d="M47.2574 46.7828C47.2574 46.7828 48.4181 48.2504 50.5128 48.2504C52.5007 48.2504 53.6615 46.9696 53.6615 45.462C53.6615 42.3533 49.2053 42.6735 49.2053 41.0592C49.2053 40.4588 49.7923 40.0452 50.5928 40.0452C51.2199 40.0452 51.847 40.3387 51.847 40.779V41.2059H53.4213V40.3254C53.4213 38.9778 51.7135 38.4575 50.6062 38.4575C48.7784 38.4575 47.4442 39.5916 47.4442 41.1259C47.4442 44.0744 51.9003 43.941 51.9003 45.5554C51.9003 46.2892 51.2599 46.6761 50.5395 46.6761C49.2186 46.6761 48.2447 45.5554 48.2447 45.5554L47.2574 46.7828ZM62.8517 48.0903H64.5995V43.9543L66.8409 40.4188C67.0144 40.1519 67.0944 40.0986 67.3879 40.0986H67.6948V38.6176H66.8009C66.1872 38.6176 65.907 38.711 65.5601 39.3114L64.3193 41.3927C63.9858 41.9531 63.7456 42.4601 63.7456 42.4601H63.719C63.719 42.4601 63.4788 41.9397 63.1453 41.3927L61.8911 39.3114C61.5309 38.711 61.2641 38.6176 60.6503 38.6176H59.7564V40.0986H60.0633C60.3568 40.0986 60.4369 40.1519 60.6103 40.4188L62.8517 43.9543V48.0903ZM73.7283 46.7828C73.7283 46.7828 74.889 48.2504 76.9837 48.2504C78.9716 48.2504 80.1323 46.9696 80.1323 45.462C80.1323 42.3533 75.6762 42.6735 75.6762 41.0592C75.6762 40.4588 76.2632 40.0452 77.0637 40.0452C77.6908 40.0452 78.3178 40.3387 78.3178 40.779V41.2059H79.8922V40.3254C79.8922 38.9778 78.1844 38.4575 77.0771 38.4575C75.2492 38.4575 73.9151 39.5916 73.9151 41.1259C73.9151 44.0744 78.3712 43.941 78.3712 45.5554C78.3712 46.2892 77.7308 46.6761 77.0103 46.6761C75.6895 46.6761 74.7156 45.5554 74.7156 45.5554L73.7283 46.7828ZM89.5761 48.0903H91.3239V40.0986H92.7781C92.9649 40.0986 93.0717 40.2053 93.0717 40.3921V40.9658H94.606V39.4715C94.606 38.8444 94.3925 38.6176 93.7521 38.6176H87.1479C86.5075 38.6176 86.294 38.8444 86.294 39.4715V40.9658H87.8283V40.3921C87.8283 40.2053 87.9351 40.0986 88.1218 40.0986H89.5761V48.0903ZM101.601 47.1831C101.601 47.8235 101.868 48.0903 102.508 48.0903H106.804C107.432 48.0903 107.712 47.8235 107.712 47.1831V45.7421H106.124V46.3158C106.124 46.5026 106.017 46.6094 105.83 46.6094H103.642C103.456 46.6094 103.349 46.5026 103.349 46.3158V44.0611H106.418V42.5801H103.349V40.0986H105.484C105.67 40.0986 105.777 40.2053 105.777 40.3921V40.9658H107.365V39.5249C107.365 38.8978 107.085 38.6176 106.458 38.6176H100.734V40.0986H101.601V47.1831ZM113.704 48.0903H115.212C115.839 48.0903 116.066 47.8235 116.119 47.1831L116.426 42.967C116.479 42.34 116.439 41.4861 116.439 41.4861H116.466C116.466 41.4861 116.746 42.4334 116.986 42.967L118.56 46.4626H119.975L121.549 42.967C121.789 42.4334 122.069 41.4995 122.069 41.4995H122.096C122.096 41.4995 122.056 42.34 122.109 42.967L122.43 47.1831C122.483 47.8235 122.696 48.0903 123.323 48.0903H124.831V46.6094H124.417C124.231 46.6094 124.137 46.5026 124.124 46.3158L123.51 38.6176H121.696L119.748 43.1272C119.521 43.6742 119.281 44.3946 119.281 44.3946H119.254C119.254 44.3946 119.014 43.6742 118.787 43.1272L116.839 38.6176H115.025L114.411 46.3158C114.398 46.5026 114.304 46.6094 114.118 46.6094H113.704V48.0903ZM130.97 46.7828C130.97 46.7828 132.131 48.2504 134.225 48.2504C136.213 48.2504 137.374 46.9696 137.374 45.462C137.374 42.3533 132.918 42.6735 132.918 41.0592C132.918 40.4588 133.505 40.0452 134.305 40.0452C134.932 40.0452 135.559 40.3387 135.559 40.779V41.2059H137.134V40.3254C137.134 38.9778 135.426 38.4575 134.319 38.4575C132.491 38.4575 131.157 39.5916 131.157 41.1259C131.157 44.0744 135.613 43.941 135.613 45.5554C135.613 46.2892 134.972 46.6761 134.252 46.6761C132.931 46.6761 131.957 45.5554 131.957 45.5554L130.97 46.7828Z" fill="white"/>
<path d="M0 12.6457H2.30373V9.88855H0V12.6457ZM0.0648938 32.692H2.27129V16.376H0.0648938V32.692Z" fill="white"/>
<path d="M9.55313 32.6921H11.7595V24.8746C11.7595 24.0961 11.8244 23.3501 12.0191 22.6689C12.7654 19.9766 15.1664 18.0628 17.9569 18.0628C21.1042 18.0628 21.4936 20.3334 21.4936 22.896V32.6921H23.7V22.3121C23.7 18.2899 22.2723 15.9868 18.2489 15.9868C14.3877 15.9868 12.3111 18.6142 11.7271 20.1064H11.6622C11.6622 20.1064 11.7271 19.5225 11.7271 18.8089V16.3761H9.55313V32.6921Z" fill="white"/>
<path d="M44.8307 24.453C44.8307 29.3835 48.6921 33.0813 53.4618 33.0813C58.2314 33.0813 62.0928 29.3835 62.0928 24.453C62.0928 19.6198 58.2314 15.9868 53.4618 15.9868C48.6921 15.9868 44.8307 19.6198 44.8307 24.453ZM47.1022 24.453C47.1022 20.7551 49.9573 17.9979 53.4618 17.9979C56.9662 17.9979 59.8213 20.7551 59.8213 24.453C59.8213 28.2482 56.9662 31.1026 53.4618 31.1026C49.9573 31.1026 47.1022 28.2482 47.1022 24.453Z" fill="white"/>
<path d="M68.1625 32.692H70.3687V25.8153C70.3687 24.7773 70.4988 23.6745 70.8231 22.6365C71.5369 20.2361 73.2565 18.4196 75.5602 18.4196C75.9823 18.4196 76.3714 18.4845 76.3714 18.4845V16.3112C76.3714 16.3112 75.9497 16.2139 75.4953 16.2139C72.9322 16.2139 71.1151 18.0952 70.3365 20.5605H70.2716C70.2716 20.5605 70.3365 19.9766 70.3365 19.263V16.376H68.1625V32.692Z" fill="white"/>
<path d="M81.6748 32.6921H83.8814V24.972C83.8814 24.2259 83.9463 23.4798 84.1082 22.7987C84.7898 20.301 86.8014 17.9979 89.462 17.9979C92.5447 17.9979 92.9016 20.3983 92.9016 22.8636V32.6921H95.1078V24.972C95.1078 24.0962 95.1727 23.3177 95.3998 22.6041C96.0165 20.2037 98.0604 17.9979 100.559 17.9979C103.544 17.9979 104.096 20.2037 104.096 22.8636V32.6921H106.302V22.3121C106.302 18.2899 104.842 15.9868 100.883 15.9868C98.1257 15.9868 95.7567 17.8682 94.8806 20.0739H94.8158C94.3292 17.3816 92.7719 15.9868 89.754 15.9868C87.2232 15.9868 84.6274 17.9006 83.8488 20.1064H83.784C83.784 20.1064 83.8488 19.5225 83.8488 18.8089V16.3761H81.6748V32.6921Z" fill="white"/>
<path d="M112.013 28.2482C112.013 31.4919 114.836 33.0813 117.562 33.0813C121.65 33.0813 123.013 29.5456 123.013 29.5456H123.078C123.078 29.5456 123.013 30.0971 123.013 30.908V32.6921H125.122V22.2472C125.122 18.1601 122.948 15.9868 119.022 15.9868C115.355 15.9868 113.214 17.8357 113.214 17.8357L114.252 19.5225C114.252 19.5225 116.166 17.9655 118.859 17.9655C121.196 17.9655 122.915 19.0359 122.915 22.1823V22.6041H122.007C119.184 22.6041 112.013 22.7338 112.013 28.2482ZM114.284 28.1184C114.284 24.5178 119.411 24.4205 121.974 24.4205H122.915V25.1341C122.915 27.9562 121.033 31.2 117.919 31.2C115.485 31.2 114.284 29.6429 114.284 28.1184Z" fill="white"/>
<path d="M131.985 28.832C131.985 32.4001 134.386 32.8218 135.749 32.8218C136.171 32.8218 136.56 32.7569 136.56 32.7569V30.7782C136.56 30.7782 136.301 30.8107 136.009 30.8107C135.165 30.8107 134.192 30.4863 134.192 28.3454V9.88855H131.985V28.832Z" fill="white"/>
<path fill-rule="evenodd" clip-rule="evenodd" d="M42.1245 1.26895C43.7329 0.415456 45.2543 0 46.6933 0C48.1491 0 49.3087 0.339097 50.2026 0.986512L50.2104 0.991737C51.0928 1.60042 51.5042 2.36001 51.5042 3.29272C51.5042 4.09334 51.2903 4.76669 50.8738 5.33164L50.866 5.34324C50.4787 5.90904 50.0666 6.12996 49.6285 6.12996C49.3624 6.12996 49.1931 6.03312 49.066 5.82547C48.8758 5.47495 48.5979 4.85575 48.2302 3.95343C47.9156 3.14944 47.5194 2.50485 47.028 2.04685C46.5425 1.5273 45.9132 1.27162 45.175 1.27162C43.9193 1.27162 42.8805 1.9691 42.0559 3.22389L42.0515 3.23079C41.2795 4.45949 40.5246 6.35826 39.7797 8.89857C39.3731 10.2873 39.05 11.5778 38.8113 12.7694C38.7446 13.0371 38.6934 13.2546 38.6586 13.4201C38.6267 13.571 38.5993 13.7189 38.5993 13.8191V13.9203C38.5993 14.197 38.6923 14.4669 38.9299 14.6537C39.1493 14.8259 39.4317 14.8787 39.7096 14.8787C40.3274 14.8787 41.2113 14.8445 42.3569 14.7772L44.7754 14.7278L44.7943 14.7655L44.8407 14.8116C44.8422 14.8131 44.8496 14.8206 44.8574 14.8444C44.8659 14.8702 44.8748 14.9141 44.8748 14.9831C44.8748 15.1158 44.7769 15.3959 44.4434 15.863L44.4378 15.871L44.4323 15.8793C44.2929 16.0964 44.1714 16.236 44.072 16.3178C43.9738 16.3988 43.9219 16.4032 43.9101 16.4032L39.654 16.5045C39.0874 16.505 38.5945 16.5917 38.2313 16.8186L38.2209 16.8252L38.2109 16.8324C37.8792 17.0694 37.6698 17.4298 37.552 17.8592C35.422 25.0881 34.967 27.3242 33.5611 34.2344C33.4946 34.5613 33.426 34.8986 33.355 35.2473L33.3531 35.2566L33.3516 35.2658C33.1614 36.4929 32.6285 37.9709 32.0152 39.3695C31.4045 40.7619 30.7257 42.0498 30.2605 42.8907C29.3372 44.5591 28.3504 45.8941 27.3044 46.9051L27.2995 46.9099C26.2756 47.9335 25.2825 48.6792 24.3215 49.1595C23.5218 49.559 22.8864 49.8366 22.4085 50L22.1947 49.4778C22.5966 49.2269 23.0417 48.8671 23.5279 48.4097C24.176 47.8371 24.7924 47.067 25.381 46.1116C26.0125 45.1451 26.582 43.9665 27.0929 42.5816C27.6361 41.2407 28.7436 38.0524 29.0416 36.2049L32.9624 18.0726C33.0095 17.9193 33.0261 17.7447 33.0261 17.5641C33.0261 17.2784 32.9094 17.0183 32.6575 16.8503C32.4343 16.7015 32.1503 16.6563 31.8653 16.6563L28.8257 16.7069C28.6177 16.7066 28.5195 16.6674 28.4765 16.6392C28.4511 16.5895 28.4208 16.4879 28.4208 16.2989C28.4208 16.0761 28.5081 15.8251 28.7363 15.5393C28.982 15.2397 29.2394 15.105 29.5133 15.0803L32.8055 14.9283L32.8162 14.9273C33.4036 14.8685 33.7207 14.3891 33.8719 13.825L34.2752 12.4135C35.1424 9.51233 36.2708 7.14709 37.6517 5.30566C39.0774 3.41579 40.5694 2.07887 42.1219 1.2704L42.1245 1.26895Z" fill="white"/>
</svg>
