<svg width="100" height="56" viewBox="0 0 100 56" fill="none" xmlns="http://www.w3.org/2000/svg">
<g clip-path="url(#clip0_21_495)">
<path d="M26.8682 -30.7039C26.6216 -30.34 26.7846 -29.7767 27.0363 -29.3258C27.1143 -29.1847 27.5313 -29.1751 27.6031 -29.0745C27.7428 -28.8779 27.5242 -28.7566 27.6939 -28.5566C27.752 -28.49 28.4062 -28.4439 28.4521 -28.3768C28.698 -28.0097 28.4962 -27.7396 28.5924 -27.3949C29.0638 -25.6976 29.0872 -24.1072 29.149 -22.4628C29.1698 -21.9205 29.63 -21.1841 29.3128 -20.6842C29.2754 -20.6259 28.7516 -20.7575 28.7063 -20.7532C28.0138 -20.6824 29.0896 -20.5558 29.2137 -20.4073C29.7036 -19.8181 29.6686 -19.2659 29.4 -18.8303C29.2843 -18.6452 28.2809 -19.0295 28.8319 -18.7246C28.869 -18.7037 29.4275 -18.6567 29.4783 -18.5913C29.5923 -18.4432 29.4593 -18.2242 29.4887 -18.1199C29.5479 -17.9183 29.5378 -17.8885 29.5181 -17.7114C29.4962 -17.4683 29.7239 -17.1341 29.5623 -16.8978C29.5263 -16.8477 28.9811 -17.0193 28.8741 -16.9481C28.7672 -16.8768 28.7815 -16.6354 28.9007 -16.5338C29.0199 -16.432 29.4592 -16.3884 29.5568 -16.3568C30.3795 -16.0935 29.176 -16.0308 29.1432 -16.0011C28.5645 -15.4557 29.1437 -14.7971 29.0523 -14.205C28.9825 -13.7555 28.6995 -13.3119 28.6663 -12.8783C28.629 -12.3613 28.8514 -11.8781 28.7282 -11.3914C28.7159 -11.3399 28.1075 -11.5108 28.0916 -11.448C27.923 -10.7814 27.8976 -10.0942 28.2065 -9.34583C28.2379 -9.2707 28.781 -9.26393 28.8437 -9.18331C29.2191 -8.69121 30.1386 -7.85481 27.828 -8.01229C27.876 -7.71557 27.9186 -7.35814 28.3346 -7.02647C28.602 -6.81278 29.1891 -6.87 28.9176 -6.714C28.8571 -6.67868 28.3738 -6.82436 28.3207 -6.76473C28.098 -6.51347 28.2103 -6.17583 27.9163 -5.94033C27.8555 -5.89262 27.4214 -5.98565 27.3405 -5.98343C26.6858 -5.96031 27.7039 -5.54765 27.7717 -5.48503C28.2827 -5.00928 28.0166 -4.77532 27.9779 -4.42349C27.9691 -4.34182 27.4067 -4.54003 27.3779 -4.46505C27.2365 -4.07473 27.2266 -3.64615 27.4203 -3.20501C27.4646 -3.10665 27.9607 -3.10181 28.0065 -3.05044C28.2014 -2.82519 27.2834 -2.94588 27.454 -2.73276C27.4887 -2.68806 27.904 -2.63606 27.9482 -2.62117C28.6415 -2.38807 27.6212 -2.47356 27.5953 -2.44985C27.2414 -2.15462 28.2502 -1.74668 28.0485 -1.43659C28.0237 -1.39962 27.5231 -1.5818 27.485 -1.47223C27.2287 -0.742799 27.2527 0.0810461 27.5359 0.898355C27.5792 1.0253 27.9676 1.00912 28.0128 1.02465C28.7161 1.27181 27.7353 1.17684 27.6933 1.20828C27.3857 1.46046 28.1446 1.88176 26.9724 1.88212C27.1685 3.21618 26.361 4.36614 27.1403 5.79301C27.149 5.81093 27.6031 5.86218 27.6184 5.89756C27.8061 6.32444 27.1203 6.12713 26.2336 6.23014C26.0119 6.25638 27.0034 6.63194 27.0747 6.66225C27.3398 6.77364 28.0115 6.82617 28.0614 6.85655C28.449 7.10361 26.2713 6.68799 26.236 6.92218C26.2385 6.93015 26.6436 6.97049 26.6803 6.99718C26.7956 7.08033 26.6271 7.11261 26.7552 7.19669C27.0521 7.38983 28.0942 7.62483 27.4474 7.72449C27.3639 7.73681 26.1455 7.47908 26.1718 7.69844C26.1831 7.78603 26.106 8.1512 26.1687 8.2685C26.2312 8.38566 26.6325 8.38407 26.6483 8.39444C27.1191 8.76376 27.3497 8.69634 28.0868 8.97033C28.8191 9.24347 27.0194 8.88432 26.8088 8.90529C26.5989 8.92649 26.9883 9.20511 27.126 9.28104C27.2641 9.35701 27.5203 9.3383 27.5955 9.3974C28.0845 9.7876 26.6828 9.36856 26.3826 9.41524C25.6749 9.52528 26.9712 9.93897 27.0631 10.171C27.0883 10.2339 26.7962 10.1344 26.7598 10.1799C26.6202 10.361 27.0084 10.5538 26.5966 10.7149C26.5288 10.7412 25.7168 10.7864 26.2719 11.0075C26.3518 11.0391 26.6837 11.0487 26.742 11.1467C26.8295 11.2934 26.8606 11.5351 26.73 11.6528C26.6336 11.7397 26.1234 11.5299 26.2671 11.6864C26.3311 11.7559 26.658 11.7061 26.752 11.8321C26.846 11.9575 26.786 12.225 26.7579 12.3258C26.7295 12.4264 26.3414 12.2996 26.3131 12.3032C26.1512 12.3261 25.9283 12.4892 25.9261 12.5067C25.8987 12.6329 25.8867 12.7603 25.8849 12.8884L26.3025 12.1663C25.8105 12.7397 25.5668 13.5496 24.8848 13.8887C24.8227 13.9204 24.5943 13.5776 24.5821 13.5792C24.2965 13.6007 25.133 14.3129 25.2419 14.6958C24.7283 14.0467 24.7516 14.2237 24.5689 14.261C24.4805 14.2785 24.3083 14.0061 24.2818 13.9857C23.8824 13.6916 24.2224 14.2242 24.2882 14.3354C24.5307 14.7454 24.1107 14.3758 24.2717 14.65C24.4308 14.9219 24.8195 15.1965 24.6951 15.2928C24.4735 15.0971 24.0708 14.4351 23.9008 14.4181C23.2607 14.3555 23.009 15.3636 22.7716 15.6441C22.5365 15.9261 22.4143 15.9621 22.3201 16.1774C22.1495 16.5659 21.9044 16.0567 21.5666 16.0213C21.2288 15.987 22.1724 16.9334 22.3309 17.1754C22.4893 17.4163 22.2718 17.2138 22.341 17.361C22.4101 17.5079 22.6043 17.5999 22.5669 17.7071C22.5291 17.8137 21.9979 17.595 21.7809 17.3901C21.3209 16.9551 20.9876 16.3706 20.9419 16.7177C20.9395 16.7379 21.1986 16.972 21.178 17.0359C21.0066 17.5339 20.6601 17.8504 20.4645 18.3187C20.4379 18.3834 20.7224 18.6365 20.7095 18.6773C20.5754 19.1022 20.2708 18.5298 19.6642 18.1268C20.2987 18.8117 20.5781 19.3221 20.3608 19.5068C20.2307 19.6184 19.9937 19.2899 19.7262 19.1433C19.6458 19.0992 19.7305 19.389 19.5921 19.2581C19.1398 18.8314 18.7822 18.227 18.7372 18.6309C18.7358 18.6493 18.9834 18.8808 18.9627 18.9255C18.8296 19.2151 18.3914 18.7462 18.108 18.8928C17.8861 19.008 17.807 19.5894 17.6361 19.8182C18.2859 20.5841 17.9359 20.5753 17.4137 20.1182C17.2951 20.2575 17.1229 20.3553 17.0513 20.5413C17.0264 20.605 17.24 20.7984 17.2541 20.827C17.4767 21.2731 16.9918 20.8168 16.9459 20.8226C16.4652 20.906 16.5211 21.5078 15.907 21.4022C15.885 21.3982 15.4379 20.901 15.6703 21.3458C15.6865 21.3759 15.9828 21.5223 15.8542 21.6637C15.7261 21.8059 15.6815 22.3086 15.2853 22.2454C15.1894 22.2301 14.7263 21.9283 14.8951 22.3308C14.9182 22.3852 15.0529 22.5165 15.101 22.6125C15.2528 22.9188 14.7963 22.4425 15.0835 22.932C15.3707 23.4216 15.485 23.8636 15.0347 23.7394C15.021 23.7362 14.6414 23.3812 14.583 23.4414C14.4898 23.5375 14.4136 23.7408 14.3048 23.8275C14.2527 23.8689 14.0819 23.5989 14.0694 23.6019C13.6146 23.7562 13.5526 24.1782 13.262 24.5781C13.2087 24.6514 12.7468 24.4935 12.8293 24.8569C12.9182 25.2538 14.031 26.2823 13.4653 26.2761C13.236 26.2722 11.8613 24.9739 12.2461 25.9175C11.6294 26.1218 11.5112 26.85 10.8312 26.9814C10.8007 26.9874 10.4121 26.6578 10.3679 26.7047C10.3026 26.7748 10.4129 26.9876 10.3708 27.0429C10.1979 27.2793 9.8715 27.295 9.6819 27.4956C9.60948 27.5712 9.78946 27.7292 9.70261 27.8189C9.61548 27.9081 9.35323 27.724 9.32051 27.9467C9.29659 28.1158 9.6023 28.678 9.5178 28.8396C9.11655 28.371 9.03555 28.4545 8.77387 28.4626C8.72342 28.464 8.61898 28.2734 8.58809 28.2657C8.45958 28.2309 8.51904 28.4115 8.3874 28.367C8.35564 28.3565 8.22137 28.1977 8.18793 28.1802C7.89895 28.0257 8.04606 28.5147 8.07118 28.5985C8.16709 28.9193 7.94761 28.7539 7.94734 28.9119C7.94678 29.0692 8.15951 29.0867 8.11524 29.2185C8.02286 29.4909 7.75795 29.6666 7.57171 29.833C7.49655 29.8984 7.37661 29.6496 7.36185 29.6541C7.16079 29.7349 7.18205 30.0845 6.75552 29.7535C7.52221 30.8903 6.57549 29.7321 6.52617 30.1316C6.52265 30.1635 6.91014 30.6716 7.03954 30.6874C7.16904 30.7032 7.14457 30.4639 7.335 30.4988C7.37956 30.5064 7.89967 30.8659 7.94164 30.8804C8.26778 30.9906 7.66285 30.2295 7.63566 30.1824C7.34766 29.6716 7.92899 30.0462 8.00101 30.0482C8.32783 30.054 8.40195 29.8162 8.66013 29.8029C8.82832 29.7935 9.25918 30.2869 9.33013 30.2065C9.56732 29.9411 9.06707 29.153 9.84493 29.5641C10.0114 29.6519 10.4253 30.2557 10.2579 29.659C10.2477 29.6219 10.0568 29.0994 10.3583 29.2888C10.3964 29.3128 10.5343 29.4779 10.5602 29.4807C10.7318 29.4963 10.6855 29.315 10.8434 29.2974C11.0013 29.2798 11.2075 29.2783 11.28 29.1296C11.324 29.0404 11.1537 28.6555 11.1235 28.5515C11.0342 28.2536 11.4435 28.5364 11.2774 28.2197C11.1098 27.9001 10.648 27.5832 10.6563 27.2793C11.0325 27.7164 11.4263 28.1594 11.8087 28.5969C12.1464 28.3121 12.3688 27.9008 12.7357 27.6486C12.7816 27.6179 12.9419 27.8965 12.9966 27.8701C13.2271 27.7582 13.2523 27.4504 13.5156 27.3633C13.7202 27.2968 14.1159 27.4283 14.3392 27.3699C13.9932 26.7589 14.3903 26.7507 14.5279 26.5648C14.5761 26.4997 14.4507 26.3583 14.4553 26.2767C14.4756 25.9719 14.7999 26.5129 14.9094 26.5533C15.3792 26.7267 14.4805 25.6216 14.7322 25.4657C14.7449 25.4566 15.3871 25.9273 15.439 25.9486C15.7717 26.0868 15.289 25.7268 15.3347 25.6195C15.4182 25.4236 15.4026 25.1999 15.7247 25.2374C15.819 25.2488 16.2555 25.527 16.1133 25.1611C16.0946 25.1131 15.9211 24.9204 15.9219 24.9006C15.9495 24.5573 16.4787 25.1786 16.7673 25.3079C17.0562 25.4375 16.8621 24.8739 16.7905 24.721C16.6075 24.3259 16.6052 24.6354 16.5735 24.6072C16.1987 24.2725 16.3758 24.2416 16.4421 24.1357C15.935 23.504 16.095 23.4362 16.5129 24.0284C16.5583 24.0931 16.437 24.0925 16.4421 24.1357C17.0346 24.68 17.2482 24.6504 16.9256 23.9515C16.7741 23.6237 16.4405 23.3648 16.7608 23.3002C16.9061 23.2708 17.2308 23.7365 17.4209 23.7843C17.8558 23.8944 17.7832 23.2767 18.0499 23.1735C18.1471 23.1365 18.2745 23.4375 18.3482 23.4208C18.5446 23.3778 18.5159 23.0989 18.7361 23.083C18.7563 23.0819 18.9393 23.3618 18.9863 23.3313C19.3472 23.1051 19.5005 22.7161 19.8457 22.4423C20.0125 22.3101 20.4366 22.2236 20.5875 22.0605C20.8509 21.7798 20.8959 21.1019 21.2331 20.996C21.4525 20.9264 21.6428 21.226 21.8704 21.3555C22.3121 21.6084 22.0206 20.7756 21.9689 20.6486C21.967 20.6445 21.7681 20.6923 21.7278 20.4921C21.5274 20.1646 21.9661 20.6485 21.9689 20.6486C21.9365 20.5672 22.1735 20.2803 22.2752 20.2884C22.3306 20.293 22.5322 20.5678 22.557 20.5654C23.1422 20.5017 23.5924 20.2757 23.8834 19.8503C23.8858 19.8396 23.6245 19.5483 23.6333 19.5268C23.7493 19.2179 24.2031 19.4729 24.5771 19.5502C24.9508 19.6271 25.0411 19.4422 24.713 18.8327C24.9106 18.7901 24.9195 18.4014 24.917 18.1687C24.9145 17.936 25.4347 18.5244 25.455 18.5285C26.0976 18.6644 25.996 18.1788 26.2842 17.8685C26.4207 17.7202 26.8108 17.5687 27.0402 17.5057C27.2224 17.4569 27.1827 17.2492 27.3864 17.247C27.4138 17.2465 27.6289 17.5366 27.6431 17.5433C28.0623 17.7697 27.4259 17.1422 27.3533 16.9991C27.0886 16.4785 26.9544 16.1918 27.307 16.262C27.3876 16.2773 28.3339 17.1706 28.4589 17.1724C28.6193 17.1722 28.2849 16.8455 28.4601 16.8539C28.4748 16.8543 28.6566 17.0747 28.7124 17.0176C28.9742 16.7551 29.189 16.3848 29.5152 16.1767C29.5591 16.1475 29.8016 16.5413 29.8701 16.5053C29.8862 16.4968 29.9023 16.4881 29.9183 16.4792L31.2896 15.1564L31.4263 13.8721C31.5508 13.5483 31.6134 13.1858 31.485 12.8291C31.4502 12.7364 31.1142 12.731 31.0224 12.6959C30.4662 12.4818 31.3483 12.4749 31.3713 12.452C31.9286 11.9072 31.2642 11.2967 31.7841 10.7329C31.813 10.7023 32.8122 10.6048 32.038 10.3447C31.9869 10.3273 31.1907 10.0646 31.7779 10.0616C31.8148 10.0614 32.2217 10.2093 32.2089 10.0751C32.1957 9.94078 32.5306 9.78788 32.1023 9.5305C31.9681 9.44924 31.1664 9.17122 31.8676 9.12442C31.9149 9.12166 33.4821 9.13543 32.4645 8.86043C32.2969 8.81537 31.1913 8.63513 31.8016 8.53904C31.9201 8.52102 32.1504 8.63279 32.3276 8.56136C32.6013 8.45229 32.3514 8.19903 32.8919 8.10117C32.987 8.08426 33.7788 8.08095 33.2311 7.86831C33.1452 7.83499 32.7642 7.8017 32.7365 7.73583C32.6022 7.42216 32.923 7.17565 32.7295 6.84702C32.6614 6.7307 32.0388 6.67348 31.8985 6.53994C31.7585 6.40641 31.6465 6.16762 31.9519 6.10814C32.258 6.04875 33.2106 6.34206 33.3286 6.19265C33.8448 5.54363 33.4361 4.73738 33.5164 4.01207C33.5286 3.90454 33.8689 4.05588 33.9135 3.90215C34.077 3.33523 34.6694 2.41144 33.9998 1.77545C33.4603 1.26534 32.8633 1.68079 32.6742 1.33059C32.5827 1.16157 33.8314 1.21793 33.8786 1.18942C34.3494 0.912681 33.866 0.576476 34.105 0.294582C34.1547 0.23645 34.6375 0.38784 34.6747 0.337436C34.8065 0.16615 34.631 -0.0696208 34.7146 -0.240803C34.7534 -0.31738 35.1331 -0.23461 35.1216 -0.313441C35.0983 -0.501317 34.9752 -0.685671 34.6545 -0.921731C34.6251 -0.94327 34.1206 -0.922726 34.1331 -1.05648C34.155 -1.27261 33.8556 -1.59888 34.283 -1.77615C34.4113 -1.8285 35.3034 -1.67308 34.7244 -1.93731C34.6036 -1.99262 33.5214 -2.14153 34.49 -2.15766C34.6498 -2.16093 35.9786 -2.24099 35.2046 -2.53343C35.0009 -2.6105 34.1395 -2.86779 34.2982 -2.92996C34.3231 -2.93777 34.7963 -2.80471 34.8605 -2.86817C35.0783 -3.09328 35.0892 -3.3678 35.3041 -3.60067C35.3626 -3.66265 35.8435 -3.46949 35.915 -3.56465C36.1129 -3.82613 36.0716 -4.20376 35.979 -4.51024C35.9439 -4.62339 35.5026 -4.62783 35.4583 -4.64346C34.7356 -4.89688 35.7663 -4.7879 35.8355 -4.81713C36.2506 -5.00173 35.8179 -5.27519 35.9995 -5.48103C36.0485 -5.53803 36.5259 -5.40671 36.5725 -5.41152C37.0302 -5.4659 36.1291 -5.52481 36.0523 -5.6243C35.8339 -5.90359 35.9337 -6.15398 36.0526 -6.37609C36.0971 -6.45755 36.6453 -6.25981 36.679 -6.33402C36.8895 -6.7712 36.9532 -7.2532 36.7412 -7.75395C36.7002 -7.84844 36.2401 -7.87524 36.1421 -7.91081C35.455 -8.15804 36.4724 -8.16101 36.5761 -8.18486C37.0465 -8.29343 36.6664 -8.43549 36.7798 -8.58499C37.3435 -9.31352 37.3198 -10.3408 37.3312 -11.1209C37.3519 -12.1365 37.0804 -12.9755 37.4159 -13.8879C37.4368 -13.946 38.0569 -13.7736 38.0832 -13.8222C38.3966 -14.4541 38.3031 -15.1475 38.6494 -15.7749C38.6768 -15.8266 39.2713 -15.6396 39.3364 -15.7187C39.4744 -15.8804 39.498 -16.1119 39.3455 -16.3271C39.2722 -16.4319 38.7131 -16.4081 38.6497 -16.5117C38.5006 -16.7533 38.5086 -16.9825 38.6591 -17.1767C38.7246 -17.2591 39.3279 -17.0101 39.364 -17.126C39.6224 -17.9126 39.9346 -18.6748 39.2855 -19.6313C39.2411 -19.6969 37.9263 -19.9809 38.2074 -20.0536C38.5779 -19.9971 39.0113 -19.9197 39.4061 -19.8536C39.9001 -20.9779 39.7117 -22.2109 39.9125 -23.3906C39.9214 -23.4402 40.6283 -23.2262 40.6495 -23.3216C40.7721 -23.874 41.1101 -24.3716 40.5113 -25.0652C40.4528 -25.1339 39.1454 -25.3361 39.3796 -25.4662C39.4221 -25.489 39.6528 -25.7067 39.9515 -25.7205C39.9964 -25.7216 40.5955 -25.5681 40.6324 -25.6449C40.8361 -26.0931 40.8143 -26.6045 40.5457 -27.1357C40.5011 -27.2216 39.8241 -27.2587 39.7864 -27.321C39.5218 -27.7622 40.1193 -28.0849 39.5973 -28.5543C39.2443 -28.8691 38.0728 -28.9837 36.9641 -29.3145C36.8076 -29.3613 36.8121 -29.5166 36.152 -29.6419C34.4919 -29.9573 32.6587 -30.207 30.891 -30.5519C30.5969 -30.6091 30.7924 -30.7003 30.4634 -30.7587C30.4633 -30.7588 30.4633 -30.7588 30.4632 -30.7588C30.3663 -30.776 30.2237 -30.7904 30.0099 -30.8001C29.9469 -30.8027 29.6208 -30.7089 29.3036 -30.7279C29.0842 -30.7408 28.4178 -30.906 28.1349 -30.9032C27.8525 -30.9002 28.4085 -30.7433 28.0736 -30.7148C27.735 -30.687 26.9768 -30.8602 26.8682 -30.7039ZM24.9056 17.1206C24.7682 16.744 25.679 17.799 25.3482 17.6346C25.3312 17.6254 24.912 17.1393 24.9056 17.1206ZM11.8602 27.2981C11.7027 26.8321 12.2352 27.277 12.3659 27.6291C12.4952 27.9795 11.9072 27.4388 11.8602 27.2981ZM10.2062 28.209C10.1423 27.8078 11.089 28.8859 10.7269 28.8021C10.7061 28.7975 10.2097 28.2322 10.2062 28.209ZM36.5235 -28.7713C36.4928 -28.7787 36.4837 -28.8925 36.515 -28.8897C37.2698 -28.8155 37.286 -28.5881 36.5235 -28.7713ZM8.56134 29.1087C8.49217 28.9248 8.77485 28.9698 8.86127 29.199C8.93031 29.3828 8.64676 29.337 8.56134 29.1087ZM27.8017 10.308C27.7795 10.3018 27.7732 10.2203 27.9007 10.2445C28.3113 10.3229 28.1749 10.4106 27.8017 10.308ZM6.14149 31.0862C6.46872 30.7579 5.99096 29.7523 5.68862 30.1742C5.63338 30.2501 6.05564 30.3066 6.02929 30.4555C5.97895 30.7255 5.44557 30.3085 5.50914 30.7211C5.52036 30.7954 6.12383 31.1061 6.14307 31.0868C6.14254 31.0866 6.14201 31.0864 6.14149 31.0862ZM23.8932 15.7905C23.8835 15.7747 23.9563 15.6908 23.97 15.7031C24.3001 16.0044 24.1526 16.1724 23.8932 15.7905ZM27.6274 5.5814C27.5831 5.56737 27.5823 5.30872 27.6256 5.30798C28.4877 5.32615 28.4859 5.84847 27.6274 5.5814ZM17.65 19.8416C17.3055 19.6169 17.1691 19.6771 17.4138 20.1175C17.487 20.0197 17.5751 19.9384 17.65 19.8416Z" fill="black"/>
<path d="M18.7221 20.1618C18.725 20.3513 18.9446 20.4797 19.1683 20.5457C19.238 20.5666 19.4052 20.4433 19.4613 20.4533C19.5707 20.4731 19.5178 20.5776 19.6399 20.5892C19.6812 20.5926 19.9522 20.409 19.9888 20.4163C20.187 20.4576 20.1818 20.604 20.3148 20.6836C20.9687 21.0764 21.4162 21.5712 21.8938 22.0713C22.0514 22.2361 22.436 22.3291 22.4486 22.583C22.4499 22.6127 22.2068 22.7298 22.1901 22.7449C21.9362 22.977 22.3958 22.6911 22.4858 22.7003C22.8416 22.7378 22.9799 22.9227 22.994 23.1415C22.9992 23.235 22.4972 23.4177 22.7987 23.347C22.8192 23.3423 23.0526 23.188 23.0907 23.1932C23.1765 23.2054 23.1844 23.3148 23.2247 23.3388C23.3037 23.3845 23.3079 23.3969 23.3489 23.4588C23.4073 23.5421 23.5893 23.5786 23.5906 23.7021C23.5902 23.7289 23.3276 23.8398 23.305 23.8947C23.2824 23.9496 23.3546 24.0214 23.4297 24.0174C23.5048 24.0134 23.6903 23.8941 23.7375 23.8745C24.1349 23.7084 23.677 24.0927 23.6722 24.112C23.594 24.4594 24.0042 24.4918 24.1313 24.7064C24.2277 24.8693 24.2381 25.095 24.3446 25.2419C24.4723 25.4163 24.6932 25.5014 24.7787 25.6923C24.7881 25.7123 24.5008 25.8427 24.5118 25.8673C24.6289 26.1287 24.8083 26.3533 25.1365 26.4958C25.1696 26.51 25.3859 26.3476 25.4329 26.3541C25.7167 26.3956 26.3103 26.381 25.3545 27.0313C25.4553 27.1104 25.5706 27.2103 25.8263 27.1889C25.9907 27.1753 26.2068 26.9794 26.1425 27.1109C26.1284 27.1404 25.8974 27.2408 25.8929 27.2757C25.8742 27.4224 26.0116 27.495 25.9604 27.6583C25.9496 27.6918 25.7525 27.7939 25.7212 27.8191C25.4691 28.0248 25.9848 27.8466 26.0288 27.8458C26.3617 27.8411 26.3211 27.9956 26.4028 28.1183C26.4218 28.1467 26.1451 28.2545 26.1544 28.2869C26.2061 28.453 26.3203 28.5912 26.5184 28.6717C26.563 28.6893 26.7602 28.5406 26.7924 28.5429C26.9315 28.5549 26.5358 28.7949 26.6618 28.8105C26.6879 28.8141 26.8661 28.7047 26.8877 28.696C27.2257 28.5596 26.7993 28.8417 26.7956 28.857C26.7372 29.0573 27.248 28.8805 27.2538 29.0394C27.2542 29.0586 27.0063 29.1528 27.0215 29.1989C27.1213 29.5067 27.3578 29.7594 27.6948 29.9315C27.7469 29.9584 27.8958 29.8357 27.918 29.8269C28.2638 29.6918 27.8503 29.959 27.8424 29.9816C27.7905 30.1544 28.2062 30.0574 27.7435 30.4126C28.1886 30.7742 28.1866 31.3816 28.8876 31.5958C28.8959 31.5988 29.0894 31.4774 29.1051 31.484C29.2969 31.5618 28.9717 31.7073 28.6501 32.0084C28.5697 32.0839 29.0647 31.902 29.1012 31.89C29.2366 31.8448 29.5163 31.6579 29.5443 31.6524C29.7655 31.6129 28.7911 32.1415 28.8417 32.2261C28.8449 32.2278 29.016 32.1178 29.0378 32.1151C29.1062 32.1064 29.0486 32.1676 29.1224 32.1554C29.2928 32.1264 29.769 31.8849 29.5411 32.1122C29.5115 32.1414 28.9595 32.4292 29.0303 32.4904C29.0589 32.5147 29.1291 32.6532 29.1861 32.6713C29.2431 32.6893 29.4011 32.5672 29.4102 32.5657C29.6979 32.5396 29.7704 32.4485 30.1369 32.3117C30.5013 32.176 29.6918 32.6079 29.6144 32.6783C29.5373 32.7486 29.7679 32.7185 29.8432 32.7008C29.9186 32.6829 30.0146 32.5994 30.0606 32.5953C30.3612 32.5702 29.6923 32.8626 29.5866 32.9683C29.3375 33.2174 29.9634 32.9553 30.0636 33.0007C30.0909 33.0129 29.9481 33.0699 29.9463 33.0953C29.9411 33.1948 30.1475 33.138 30.0293 33.3136C30.0098 33.3424 29.7016 33.6027 29.9817 33.5043C30.022 33.49 30.1557 33.3925 30.2057 33.4058C30.2807 33.4256 30.3596 33.4924 30.3404 33.5691C30.3263 33.6258 30.0671 33.7141 30.1669 33.7199C30.2114 33.7225 30.3267 33.6078 30.3985 33.619C30.4702 33.6302 30.5202 33.7327 30.5369 33.773C30.5534 33.8134 30.3653 33.8909 30.3551 33.9006C30.2975 33.9569 30.2544 34.0759 30.2583 34.0821C30.4253 34.4129 30.8862 34.5471 30.9697 34.913C30.9767 34.9416 30.7886 35.0246 30.7878 35.03C30.7619 35.1552 31.1981 34.8252 31.3898 34.7959C31.0235 34.9885 31.1087 34.9868 31.1031 35.068C31.1001 35.1073 30.9519 35.1693 30.9391 35.1798C30.7522 35.3396 31.0424 35.2169 31.1024 35.1936C31.3234 35.1075 31.0989 35.2727 31.2466 35.2156C31.3929 35.1593 31.5694 35.0033 31.5985 35.062C31.4797 35.1491 31.1214 35.2929 31.0922 35.366C30.9827 35.6414 31.4196 35.7985 31.5201 35.915C31.6217 36.0306 31.6231 36.0854 31.7113 36.1366C31.8704 36.2292 31.603 36.3116 31.5441 36.4569C31.4857 36.6021 32.0441 36.2366 32.1765 36.1791C32.3084 36.1216 32.1869 36.2066 32.2641 36.1835C32.341 36.1604 32.4082 36.0803 32.4533 36.1016C32.4981 36.1231 32.3297 36.3438 32.2072 36.4284C31.9472 36.6079 31.6337 36.7252 31.7893 36.7614C31.7984 36.7634 31.9397 36.6619 31.9668 36.6738C32.1768 36.7719 32.2803 36.9376 32.4735 37.0448C32.5002 37.0595 32.6536 36.9477 32.6709 36.9552C32.8516 37.0337 32.5472 37.139 32.2837 37.3837C32.6818 37.1402 32.9541 37.0429 33.0127 37.1461C33.0482 37.208 32.8657 37.2955 32.764 37.4049C32.7334 37.4377 32.8787 37.4146 32.8005 37.4686C32.5453 37.6451 32.2195 37.772 32.4015 37.8107C32.4099 37.8122 32.5486 37.7155 32.5668 37.7266C32.6847 37.7982 32.4117 37.9665 32.4442 38.0967C32.4699 38.1987 32.7302 38.2606 32.8151 38.3457C33.2527 38.0994 33.2047 38.2511 32.9266 38.4566C32.9764 38.5147 33.0002 38.5943 33.0777 38.6342C33.1042 38.648 33.2209 38.5643 33.236 38.5595C33.4713 38.4838 33.1983 38.6731 33.1952 38.6933C33.1736 38.9063 33.4603 38.9105 33.3341 39.1725C33.3294 39.1819 33.0422 39.3528 33.2781 39.2728C33.2942 39.2672 33.3994 39.1452 33.449 39.2079C33.499 39.2703 33.7271 39.3135 33.6479 39.4828C33.6287 39.5238 33.4303 39.7109 33.6386 39.6565C33.6667 39.649 33.7447 39.5967 33.7954 39.5803C33.9568 39.5288 33.678 39.7047 33.9417 39.603C34.2053 39.5013 34.4251 39.4725 34.3108 39.6624C34.3076 39.6682 34.0949 39.8165 34.1155 39.8447C34.1485 39.8898 34.2335 39.9326 34.2601 39.984C34.2728 40.0086 34.1258 40.0701 34.1256 40.0757C34.1402 40.2808 34.3286 40.3277 34.4779 40.473C34.5053 40.4996 34.3739 40.693 34.5532 40.6743C34.7488 40.6545 35.3667 40.2192 35.2927 40.4649C35.2621 40.5645 34.4859 41.1008 34.9729 40.9781C34.9903 41.2559 35.314 41.3418 35.2896 41.6437C35.2886 41.6573 35.0865 41.8107 35.1028 41.8321C35.1272 41.8638 35.2399 41.8259 35.2604 41.8469C35.3485 41.9332 35.3148 42.0759 35.3842 42.1678C35.4103 42.2029 35.5063 42.1321 35.5371 42.1741C35.5676 42.2162 35.4491 42.3216 35.5485 42.3463C35.6241 42.3647 35.9238 42.2584 35.9883 42.3028C35.7201 42.4551 35.7487 42.4943 35.7196 42.6084C35.7139 42.6304 35.6122 42.6668 35.6047 42.6799C35.5724 42.7341 35.6638 42.7168 35.6266 42.772C35.6177 42.7853 35.527 42.8362 35.5147 42.8499C35.4066 42.9682 35.6524 42.9274 35.6945 42.9204C35.8556 42.8939 35.7512 42.9815 35.8246 42.9891C35.8976 42.9968 35.9325 42.9051 35.9882 42.9306C36.1032 42.9837 36.1516 43.1072 36.2055 43.196C36.2265 43.2318 36.0957 43.2722 36.096 43.2788C36.1083 43.3701 36.2735 43.3774 36.066 43.5472C36.6908 43.2676 36.0335 43.6245 36.2129 43.6648C36.2273 43.6679 36.5122 43.5234 36.5358 43.4679C36.5594 43.4123 36.4451 43.4116 36.4852 43.3305C36.4944 43.3114 36.7268 43.1023 36.7388 43.0847C36.831 42.9481 36.4013 43.1752 36.3759 43.1848C36.1023 43.2858 36.3495 43.0508 36.3595 43.0195C36.4033 42.8777 36.302 42.8342 36.3283 42.7213C36.345 42.6477 36.6285 42.4837 36.6001 42.4491C36.5065 42.3334 36.0773 42.5136 36.3662 42.1948C36.4279 42.1266 36.7605 41.9751 36.4622 42.0197C36.4436 42.0224 36.1768 42.0807 36.3027 41.9585C36.3186 41.9431 36.4127 41.891 36.4173 41.8798C36.4461 41.806 36.356 41.8175 36.3676 41.748C36.3793 41.6785 36.4045 41.5888 36.3445 41.5502C36.3086 41.5268 36.1083 41.5827 36.0561 41.5909C35.9064 41.6156 36.0893 41.451 35.9212 41.5083C35.7516 41.5661 35.5463 41.7519 35.4061 41.7339C35.6566 41.591 35.9119 41.4407 36.1633 41.2951C36.0734 41.1348 35.9102 41.0186 35.839 40.8471C35.8305 40.8257 35.9801 40.7692 35.9747 40.7442C35.9517 40.6386 35.8118 40.6131 35.8044 40.4945C35.7992 40.4024 35.91 40.2365 35.911 40.1366C35.5834 40.2582 35.6295 40.0851 35.5604 40.0165C35.5362 39.9925 35.4547 40.0403 35.4174 40.0344C35.2782 40.0112 35.5705 39.8958 35.603 39.8501C35.7427 39.654 35.1161 39.9925 35.0752 39.8757C35.0726 39.8697 35.372 39.6127 35.3885 39.5911C35.4945 39.453 35.2665 39.6459 35.2224 39.6209C35.1419 39.5754 35.0359 39.5715 35.0938 39.4333C35.111 39.3928 35.2951 39.2162 35.1072 39.2607C35.0825 39.2665 34.9711 39.3329 34.962 39.3316C34.8059 39.3033 35.1612 39.1026 35.2576 38.9832C35.3541 38.8637 35.0678 38.9215 34.9877 38.9454C34.7811 39.0063 34.9246 39.0219 34.9076 39.0343C34.7049 39.1815 34.7128 39.103 34.6719 39.0692C34.3146 39.2598 34.3031 39.187 34.6309 39.0333C34.6667 39.0166 34.6512 39.0693 34.6719 39.0692C34.9993 38.8373 35.0124 38.743 34.647 38.8502C34.4756 38.9006 34.3134 39.0334 34.3236 38.8911C34.3281 38.8265 34.5854 38.7073 34.6315 38.6269C34.7373 38.443 34.4411 38.4454 34.4266 38.3245C34.4217 38.2805 34.5776 38.2393 34.5791 38.2065C34.5838 38.119 34.4505 38.1183 34.4708 38.0218C34.4728 38.013 34.6259 37.9467 34.6176 37.9248C34.5578 37.7571 34.3963 37.6721 34.3124 37.509C34.2719 37.4302 34.285 37.2417 34.2281 37.1684C34.1308 37.0406 33.8213 36.9889 33.8144 36.8373C33.8097 36.7385 33.9728 36.67 34.0616 36.5771C34.2347 36.397 33.811 36.4844 33.7455 36.5009C33.7433 36.5015 33.7405 36.5903 33.6424 36.5983C33.465 36.6699 33.7451 36.5021 33.7455 36.5009C33.7035 36.5111 33.5999 36.3944 33.6165 36.3506C33.6256 36.3268 33.7787 36.2521 33.7806 36.2412C33.8246 35.9837 33.7761 35.7772 33.6149 35.6306C33.6103 35.629 33.442 35.7289 33.4331 35.724C33.3041 35.659 33.4797 35.4737 33.5626 35.3147C33.6453 35.1559 33.5707 35.1079 33.2462 35.2216C33.2512 35.1337 33.0717 35.1115 32.9632 35.1015C32.8547 35.0916 33.1935 34.8933 33.198 34.8846C33.3419 34.6116 33.1034 34.6328 32.9954 34.4928C32.9436 34.4264 32.9222 34.2496 32.9217 34.1469C32.922 34.0653 32.8204 34.0728 32.845 33.9841C32.8482 33.9722 33.0101 33.8924 33.015 33.8865C33.1729 33.7149 32.8013 33.962 32.7256 33.9868C32.4504 34.0772 32.3003 34.1221 32.3772 33.972C32.3944 33.9377 32.9285 33.5685 32.9451 33.5142C32.9651 33.4444 32.7713 33.5744 32.7972 33.4986C32.7993 33.4922 32.9245 33.4236 32.905 33.3966C32.8159 33.2704 32.6707 33.1595 32.615 33.0078C32.6069 32.9873 32.8205 32.9005 32.8123 32.869C32.7739 32.7211 32.6989 32.5774 32.542 32.4999C32.5027 32.4812 32.3686 32.5812 32.3227 32.598C32.044 32.6989 32.3904 32.4295 32.3932 32.4153C32.4631 32.0746 32.0325 32.0832 32.0824 31.7478C32.0854 31.7294 32.453 31.396 32.0757 31.5484C32.0507 31.5584 31.664 31.7167 31.895 31.5379C31.9095 31.5267 32.1109 31.45 32.0689 31.4116C32.0266 31.3732 32.1167 31.2235 31.8767 31.272C31.8013 31.2871 31.4082 31.4422 31.6721 31.215C31.69 31.1998 32.3126 30.7294 31.835 30.9509C31.7565 30.9874 31.2703 31.2655 31.4847 31.0503C31.5266 31.0087 31.6483 30.9742 31.6986 30.898C31.7766 30.7806 31.6081 30.7764 31.7945 30.5818C31.8274 30.5477 32.1391 30.3068 31.8643 30.4056C31.8212 30.4211 31.6616 30.526 31.6325 30.5136C31.493 30.4553 31.5518 30.2803 31.3848 30.2353C31.3259 30.2192 31.0643 30.3898 30.9721 30.3901C30.88 30.3904 30.77 30.349 30.8742 30.2377C30.9787 30.1262 31.4356 29.9302 31.441 29.8473C31.466 29.4861 31.0824 29.3555 30.9142 29.1023C30.8894 29.0647 31.0655 29.0094 31.0407 28.9474C30.9491 28.7189 30.9283 28.248 30.4887 28.2501C30.1351 28.2526 30.0139 28.5646 29.8427 28.5114C29.76 28.4857 30.2686 28.1252 30.2793 28.102C30.389 27.872 30.1055 27.9123 30.1221 27.751C30.1258 27.7176 30.3581 27.6191 30.3589 27.592C30.3637 27.498 30.2294 27.4768 30.2153 27.3974C30.2095 27.3615 30.3822 27.2726 30.3559 27.2512C30.295 27.199 30.1956 27.1781 30.0039 27.2008C29.9863 27.2029 29.7928 27.3622 29.7609 27.3162C29.71 27.2413 29.5018 27.2291 29.6218 27.0437C29.658 26.9883 30.053 26.7671 29.7516 26.8591C29.6887 26.8782 29.2203 27.1591 29.5983 26.8606C29.6605 26.8112 30.1631 26.3834 29.7769 26.5255C29.6752 26.5629 29.2643 26.7427 29.3098 26.675C29.3175 26.665 29.541 26.5636 29.5488 26.5242C29.5728 26.3871 29.5014 26.2972 29.5221 26.1587C29.5281 26.1214 29.7712 26.0366 29.7732 25.9849C29.7793 25.8425 29.6589 25.7358 29.5379 25.6672C29.4929 25.6421 29.3174 25.7744 29.2956 25.7829C28.9404 25.9218 29.3774 25.644 29.3967 25.6138C29.5097 25.4298 29.2635 25.4746 29.2785 25.3546C29.2821 25.3218 29.5068 25.2186 29.5238 25.203C29.6896 25.0472 29.3176 25.3016 29.2598 25.2934C29.0966 25.2715 29.067 25.1622 29.0528 25.0561C29.0479 25.017 29.3188 24.9133 29.3117 24.8797C29.2743 24.678 29.1666 24.5065 28.9449 24.4128C28.9027 24.3954 28.7136 24.5263 28.6652 24.5447C28.3257 24.6749 28.7266 24.3657 28.761 24.3268C28.9168 24.1501 28.7276 24.2203 28.7311 24.1388C28.7529 23.7382 28.4605 23.4212 28.25 23.1716C27.9783 22.8449 27.6399 22.6623 27.5209 22.2728C27.5131 22.2482 27.8054 22.1147 27.8025 22.0914C27.7521 21.7971 27.5241 21.6066 27.4879 21.3037C27.4845 21.2791 27.7707 21.158 27.7746 21.1133C27.7845 21.0206 27.7301 20.9403 27.6105 20.9186C27.5527 20.9078 27.3385 21.0846 27.2849 21.0711C27.1595 21.0401 27.0995 20.9654 27.1054 20.8585C27.1085 20.8126 27.4153 20.7084 27.3977 20.661C27.2829 20.3344 27.1961 19.9994 26.6763 19.8942C26.6406 19.8869 26.0433 20.1956 26.1342 20.0875C26.2961 19.9931 26.4885 19.8863 26.6626 19.7875C26.5478 19.2831 26.1336 18.9511 25.8878 18.518C25.8776 18.4997 26.2157 18.3531 26.1978 18.3165C26.094 18.1051 26.0903 17.8457 25.6627 17.8082C25.6207 17.8043 25.0488 18.1365 25.1054 18.0245C25.1159 18.0044 25.147 17.8659 25.2611 17.771C25.2785 17.7571 25.5574 17.624 25.5508 17.5886C25.5077 17.3855 25.3582 17.2307 25.1057 17.1445C25.0644 17.1309 24.7869 17.3242 24.7549 17.316C24.5288 17.2569 24.6758 16.9741 24.3403 16.9841C24.1142 16.9917 23.62 17.3104 23.0912 17.5419C23.0165 17.5746 22.9754 17.5242 22.6803 17.6846C21.9379 18.088 21.1453 18.5645 20.3523 18.9912C20.2204 19.0622 20.2725 18.9742 20.1265 19.0554C20.1265 19.0554 20.1264 19.0554 20.1264 19.0555C20.0834 19.0794 20.0231 19.118 19.936 19.1797C19.9105 19.198 19.8076 19.3264 19.6771 19.4165C19.5869 19.4789 19.2783 19.6286 19.1673 19.7152C19.0567 19.8017 19.3194 19.6828 19.195 19.7932C19.069 19.9046 18.7219 20.0796 18.7221 20.1618ZM32.4746 35.0569C32.2822 35.0989 32.8871 34.7527 32.7691 34.8887C32.7627 34.8957 32.484 35.055 32.4746 35.0569ZM35.5661 41.2112C35.3297 41.2577 35.6034 41.0472 35.7835 41.007C35.9626 40.9673 35.6374 41.1975 35.5661 41.2112ZM35.7817 41.9736C35.5872 41.9824 36.2072 41.6217 36.1228 41.7752C36.118 41.784 35.7929 41.9732 35.7817 41.9736ZM23.0669 17.8468C23.0528 17.8537 23.0178 17.8206 23.0309 17.812C23.3494 17.6068 23.4184 17.6736 23.0669 17.8468ZM35.9932 42.7314C35.899 42.7528 35.9555 42.632 36.0728 42.6053C36.167 42.5839 36.11 42.7051 35.9932 42.7314ZM30.393 32.8201C30.3825 32.8249 30.3575 32.8011 30.4146 32.7701C30.5983 32.6705 30.5686 32.7395 30.393 32.8201ZM36.6083 43.8773C36.4968 43.7194 35.9694 43.8796 36.1275 44.031C36.1558 44.0586 36.2352 43.8777 36.3011 43.8962C36.4203 43.9309 36.1594 44.1431 36.3592 44.135C36.3951 44.1336 36.6153 43.8859 36.6088 43.8766C36.6086 43.8768 36.6085 43.877 36.6083 43.8773ZM31.7291 35.4342C31.7205 35.4377 31.6907 35.4021 31.6982 35.3967C31.8797 35.2674 31.9392 35.3395 31.7291 35.4342ZM29.0216 31.3815C29.0002 31.3905 28.9286 31.3091 28.9455 31.2957C29.2909 31.0403 29.4341 31.2057 29.0216 31.3815ZM32.8277 38.3407C32.68 38.4799 32.6908 38.5421 32.9262 38.4565C32.89 38.42 32.8633 38.3779 32.8277 38.3407Z" fill="black"/>
</g>
<defs>
<clipPath id="clip0_21_495">
<rect width="56" height="100" fill="white" transform="matrix(-4.37114e-08 1 1 4.37114e-08 2.44784e-06 0)"/>
</clipPath>
</defs>
</svg>
