<svg width="91" height="76" viewBox="0 0 91 76" fill="none" xmlns="http://www.w3.org/2000/svg">
<g clip-path="url(#clip0_21_461)">
<path d="M28.8654 95.9011C29.1493 95.455 29.0397 94.762 28.8296 94.2069C28.7647 94.0331 28.3453 94.0195 28.2826 93.8955C28.1609 93.6532 28.393 93.5052 28.2413 93.2587C28.1892 93.1766 27.5341 93.117 27.4944 93.0343C27.2821 92.5821 27.5117 92.2511 27.4482 91.8271C27.1376 89.7393 27.2684 87.785 27.3656 85.7642C27.3972 85.0977 27.0048 84.1908 27.3731 83.5779C27.4164 83.5064 27.9317 83.6706 27.9777 83.6655C28.6828 83.5816 27.6105 83.4212 27.4998 83.2381C27.0631 82.5119 27.152 81.8335 27.465 81.2995C27.5997 81.0726 28.5739 81.5494 28.048 81.1723C28.0127 81.1463 27.4541 81.086 27.4092 81.0054C27.3087 80.8229 27.4641 80.5544 27.4445 80.4261C27.4044 80.1782 27.4175 80.1417 27.4545 79.9241C27.5001 79.6255 27.303 79.2138 27.4889 78.9242C27.53 78.8627 28.063 79.0761 28.1778 78.9891C28.2925 78.902 28.3015 78.6053 28.1912 78.4799C28.0809 78.3543 27.6422 78.2986 27.5469 78.2594C26.743 77.9321 27.9625 77.8606 27.9983 77.8243C28.6347 77.1567 28.1147 76.3448 28.2643 75.6176C28.3782 75.0656 28.7067 74.5218 28.7821 73.9892C28.8699 73.3542 28.6926 72.7594 28.864 72.1618C28.8814 72.0986 29.4782 72.3114 29.5003 72.2344C29.7349 71.416 29.8272 70.5717 29.5884 69.6507C29.5641 69.5583 29.0172 69.5475 28.9618 69.4481C28.631 68.8417 27.7852 67.8098 30.0994 68.0139C30.0797 67.649 30.0715 67.2096 29.6843 66.8002C29.4355 66.5364 28.838 66.604 29.1269 66.4136C29.1913 66.3704 29.6644 66.5517 29.7237 66.4786C29.9726 66.1709 29.8922 65.7555 30.2113 65.4675C30.2773 65.4091 30.7059 65.5255 30.7877 65.5231C31.4499 65.4977 30.4637 64.986 30.4013 64.9087C29.9323 64.3218 30.2233 64.0355 30.2964 63.6034C30.3133 63.503 30.8609 63.7492 30.8973 63.6572C31.0778 63.1782 31.1293 62.6516 30.9768 62.1087C30.9417 61.9876 30.4421 61.9794 30.4009 61.9161C30.2262 61.6384 31.1399 61.7909 30.9887 61.5283C30.958 61.4732 30.5444 61.4074 30.5013 61.3889C29.825 61.0993 30.8453 61.209 30.8737 61.18C31.2591 60.8188 30.2816 60.3129 30.515 59.9328C30.5437 59.8875 31.0307 60.1137 31.0797 59.9792C31.4088 59.0841 31.4646 58.0717 31.2584 57.0661C31.2271 56.9099 30.8339 56.928 30.7898 56.9087C30.1048 56.6018 31.0844 56.723 31.1298 56.6845C31.4644 56.3761 30.7401 55.8549 31.9219 55.8598C31.8537 54.2197 32.7793 52.8104 32.1321 51.0535C32.125 51.0314 31.6722 50.9664 31.6603 50.9228C31.5125 50.3974 32.1847 50.643 33.0886 50.5205C33.3147 50.4893 32.3515 50.0233 32.2826 49.9857C32.0261 49.8476 31.354 49.78 31.3067 49.7424C30.9399 49.4371 33.095 49.9577 33.1533 49.6701C33.1516 49.6604 32.7471 49.6089 32.7126 49.576C32.6045 49.4732 32.7775 49.4344 32.6565 49.3305C32.3759 49.0918 31.3481 48.7982 32.0099 48.6787C32.0953 48.664 33.2986 48.9863 33.2934 48.7166C33.2905 48.6089 33.4036 48.1606 33.3518 48.0161C33.3001 47.8719 32.8954 47.872 32.8805 47.8592C32.4417 47.4032 32.2027 47.485 31.4862 47.145C30.7744 46.806 32.5539 47.2555 32.7682 47.2307C32.9819 47.2057 32.6164 46.8615 32.4849 46.7676C32.3531 46.6736 32.093 46.6954 32.0229 46.6224C31.5677 46.1407 32.9403 46.6621 33.2474 46.6061C33.9716 46.4741 32.7048 45.9599 32.6347 45.6743C32.6154 45.5969 32.9002 45.7205 32.9413 45.6647C33.0996 45.4428 32.727 45.2042 33.1578 45.0081C33.2286 44.9761 34.0516 44.9243 33.5135 44.65C33.436 44.6109 33.1023 44.5976 33.0531 44.4768C32.9791 44.2963 32.9712 43.9991 33.1143 43.8551C33.2199 43.7487 33.7138 44.0088 33.5842 43.8159C33.5264 43.7302 33.1921 43.7899 33.1095 43.6346C33.0269 43.4801 33.1133 43.1517 33.1514 43.028C33.1898 42.9045 33.5688 43.062 33.5976 43.0578C33.7631 43.0304 34.0037 42.831 34.0076 42.8095C34.2785 41.7404 33.8429 40.6006 34.283 39.5994C34.3167 39.5207 34.7038 39.6652 34.7131 39.6541C34.9393 39.4094 33.8326 39.3937 33.5222 39.1175C34.3231 39.3273 34.2022 39.1783 34.3334 38.9995C34.3972 38.9135 34.6971 39.0356 34.7309 39.034C35.233 38.9981 34.6438 38.7621 34.5251 38.7087C34.0877 38.5119 34.6502 38.5311 34.3586 38.3985C34.0699 38.2666 33.588 38.3125 33.6367 38.1238C33.9339 38.1346 34.6496 38.4437 34.8013 38.3262C35.3716 37.8824 35.0041 36.7322 35.0416 36.2807C35.0444 36.2444 35.0475 36.2101 35.0508 36.1777L35.1203 35.9336L34.976 35.6202C34.764 35.3146 34.7287 35.1731 34.5314 35.0061C34.1444 34.6778 34.7092 34.5738 34.7878 34.2009C34.8651 33.8276 33.7557 34.5775 33.4822 34.6748C33.2098 34.7725 33.4491 34.5943 33.2861 34.6225C33.1234 34.6507 33.0029 34.8404 32.895 34.7609C32.7876 34.6811 33.0824 34.1507 33.3242 33.974C33.8374 33.5993 34.492 33.4206 34.1331 33.2491C34.1121 33.2393 33.8346 33.4541 33.77 33.4087C33.268 33.0418 32.9783 32.5378 32.5105 32.1536C32.4458 32.101 32.1451 32.3382 32.1039 32.3095C31.6742 32.0103 32.3126 31.8601 32.8101 31.3074C32.0132 31.7949 31.4429 31.9377 31.2756 31.6264C31.1744 31.4397 31.5484 31.2827 31.7351 31.0281C31.7913 30.9517 31.4766 30.9484 31.631 30.8357C32.1345 30.467 32.813 30.2674 32.3944 30.077C32.3752 30.0691 32.1019 30.2717 32.0575 30.2327C31.7696 29.9813 32.3158 29.6433 32.1966 29.2697C32.1028 28.977 31.502 28.6867 31.2827 28.4131C30.3988 28.8902 30.4509 28.4943 30.995 28.0563C30.8632 27.8732 30.7816 27.6432 30.5952 27.4975C30.5313 27.4472 30.302 27.6242 30.2702 27.6304C29.7745 27.7306 30.3131 27.3349 30.3126 27.2805C30.284 26.7038 29.6453 26.5603 29.8314 25.8967C29.8383 25.873 30.4152 25.5345 29.9197 25.6463C29.886 25.6544 29.696 25.9418 29.5633 25.7464C29.4297 25.5515 28.9073 25.3276 29.0222 24.8977C29.05 24.7936 29.4237 24.3696 28.9804 24.4235C28.9205 24.4311 28.766 24.5394 28.6593 24.5612C28.3192 24.6289 28.8753 24.2724 28.3261 24.4313C27.7767 24.5902 27.2986 24.5683 27.4842 24.0977C27.4893 24.0832 27.9086 23.7727 27.8525 23.6854C27.763 23.5461 27.5588 23.3892 27.4812 23.2354C27.4441 23.1616 27.7485 23.0599 27.7469 23.0446C27.6406 22.473 27.2051 22.2571 26.8209 21.7882C26.7505 21.7022 26.9728 21.2299 26.5811 21.1989C26.1535 21.1636 24.9372 22.0781 25.013 21.4354C25.0452 21.1753 26.577 20.0551 25.539 20.169C25.4001 19.3956 24.65 19.0102 24.5953 18.1898C24.5928 18.153 24.9865 17.8234 24.9426 17.7568C24.877 17.6583 24.6401 17.7108 24.5871 17.6437C24.3602 17.3652 24.3837 16.9878 24.1963 16.7026C24.1258 16.594 23.9378 16.7448 23.8543 16.6149C23.7713 16.4849 23.9967 16.2493 23.7669 16.1353C23.5923 16.0498 22.9644 16.2048 22.8052 16.0528C23.3464 15.7567 23.2686 15.6356 23.2922 15.3345C23.2969 15.2766 23.5098 15.2231 23.5217 15.1906C23.574 15.056 23.3771 15.0616 23.4399 14.9269C23.4549 14.8943 23.6382 14.7959 23.6606 14.7638C23.8582 14.4876 23.3267 14.4869 23.2356 14.4867C22.8871 14.4856 23.0876 14.2924 22.9218 14.2377C22.7566 14.1829 22.7122 14.4194 22.5793 14.3235C22.3045 14.1244 22.1526 13.762 22.0006 13.4924C21.9412 13.3842 22.2172 13.3331 22.2142 13.3147C22.154 13.0577 21.7843 12.9616 22.1841 12.5893C20.8965 13.0719 22.2287 12.3914 21.8153 12.1977C21.7822 12.1827 21.2012 12.4495 21.1688 12.5916C21.1362 12.7337 21.3905 12.7882 21.3306 12.9933C21.3171 13.0415 20.8758 13.5106 20.8555 13.5535C20.6998 13.8873 21.5731 13.4597 21.6259 13.445C22.1976 13.2925 21.7329 13.8262 21.722 13.9077C21.6759 14.2782 21.9165 14.4446 21.8988 14.7435C21.8881 14.9385 21.3172 15.2598 21.3928 15.3683C21.6424 15.7301 22.5313 15.4311 22.0043 16.1763C21.8917 16.3359 21.2069 16.5999 21.854 16.6144C21.8942 16.6156 22.4663 16.5778 22.2304 16.8564C22.2006 16.8915 22.0103 16.9918 22.0041 17.0205C21.9668 17.2106 22.1628 17.2203 22.162 17.4063C22.161 17.5924 22.1374 17.8281 22.2847 17.9618C22.3729 18.0427 22.7979 17.9811 22.9108 17.9824C23.2346 17.9832 22.8874 18.3524 23.2404 18.2721C23.5965 18.1911 23.9859 17.7738 24.3039 17.8878C23.7988 18.1662 23.2854 18.4626 22.7792 18.7479C23.0368 19.2309 23.4414 19.626 23.6612 20.1311C23.6878 20.1941 23.3757 20.2808 23.3967 20.3523C23.4859 20.6536 23.8061 20.7883 23.8653 21.1184C23.91 21.3745 23.7234 21.7804 23.7573 22.055C24.4414 21.8709 24.4013 22.3264 24.5795 22.5473C24.642 22.6247 24.8059 22.5304 24.891 22.5638C25.2086 22.6918 24.6008 22.8753 24.5449 22.9862C24.3052 23.462 25.5758 22.8179 25.7086 23.1586C25.7166 23.1761 25.1437 23.7462 25.115 23.7981C24.929 24.1297 25.3662 23.7034 25.4732 23.7925C25.6687 23.955 25.9056 24.0144 25.8267 24.3686C25.8031 24.4721 25.4575 24.874 25.8591 24.8378C25.9118 24.8331 26.1355 24.7016 26.1562 24.7094C26.5132 24.859 25.796 25.2483 25.6248 25.5328C25.4533 25.8176 26.0689 25.7903 26.2382 25.7614C26.6755 25.6887 26.3508 25.5796 26.3843 25.5532C26.7817 25.241 26.7925 25.4536 26.8955 25.5657C27.621 25.205 27.6726 25.4109 26.9996 25.6834C26.926 25.7128 26.9415 25.5748 26.8955 25.5657C26.2514 26.0537 26.2562 26.3074 27.0296 26.1803C27.3925 26.1204 27.7052 25.8292 27.7338 26.2166C27.7469 26.3923 27.218 26.6022 27.1446 26.8024C26.9756 27.2603 27.6331 27.3902 27.7088 27.7298C27.7357 27.8533 27.4041 27.895 27.4125 27.9847C27.4336 28.2234 27.7299 28.2867 27.7197 28.5431C27.7183 28.5666 27.402 28.6788 27.4283 28.7429C27.6216 29.2322 28.0112 29.5408 28.2564 30.0286C28.3748 30.2644 28.4136 30.7775 28.5664 31.0057C28.8288 31.4025 29.5351 31.6873 29.605 32.1081C29.6512 32.3823 29.3133 32.496 29.1494 32.7109C28.8297 33.1273 29.7399 33.0817 29.8795 33.0665C29.8841 33.0658 29.8583 32.8225 30.0735 32.8455C30.4419 32.7299 29.88 33.0633 29.8795 33.0665C29.969 33.0576 30.2413 33.4266 30.2203 33.5397C30.2087 33.6012 29.8953 33.7364 29.8949 33.7655C29.89 34.4546 30.0721 35.0456 30.4831 35.5238C30.4941 35.5303 30.832 35.3326 30.8535 35.35C31.1636 35.5886 30.8402 36.0182 30.7132 36.418C30.5867 36.8175 30.7697 36.984 31.45 36.8199C31.4663 37.0097 31.7243 37.1397 31.9529 37.2237L31.712 35.4273C31.7433 35.4833 31.775 35.5356 31.8032 35.581C31.9387 35.7989 31.1671 35.6517 31.1477 35.6638C30.5333 36.0402 30.8964 36.4192 30.8335 36.9388C30.8046 37.1861 30.5657 37.6357 30.4102 37.8756C30.286 38.0648 30.4383 38.2298 30.2694 38.392C30.2467 38.4139 29.9009 38.3089 29.8852 38.3136C29.4054 38.4291 30.2964 38.522 30.4391 38.6002C30.9585 38.884 31.2348 39.0494 30.9002 39.2602C30.8241 39.309 29.522 39.2085 29.4165 39.305C29.2827 39.4313 29.7492 39.4771 29.598 39.6068C29.5855 39.618 29.3074 39.5526 29.2935 39.6505C29.2254 40.1041 29.2582 40.6227 29.1051 41.0756C29.0852 41.1377 28.657 40.9561 28.6204 41.0441C28.449 41.4568 28.3348 41.9258 28.4347 42.3879C28.4608 42.502 28.799 42.5101 28.8881 42.5537C29.4281 42.8192 28.5381 42.8237 28.5128 42.8518C27.898 43.5186 28.5086 44.2719 27.9298 44.9622C27.8977 44.9996 26.8809 45.1149 27.6362 45.438C27.686 45.4597 28.4632 45.7861 27.8709 45.7872C27.8337 45.7871 27.4378 45.6036 27.4377 45.7686C27.438 45.9337 27.0856 46.12 27.4923 46.4382C27.6198 46.5387 28.401 46.884 27.6896 46.9383C27.6416 46.9415 26.063 46.9174 27.0622 47.2599C27.2268 47.3161 28.3239 47.5426 27.6993 47.6579C27.5781 47.6795 27.3568 47.5411 27.1712 47.628C26.8847 47.7608 27.112 48.0731 26.5577 48.1909C26.4601 48.2113 25.6616 48.2117 26.1931 48.4755C26.2765 48.5168 26.6573 48.5595 26.6789 48.6406C26.7839 49.0266 26.4365 49.328 26.5997 49.7327C26.6571 49.876 27.2792 49.9492 27.4076 50.1139C27.5359 50.2786 27.6256 50.5725 27.3119 50.6442C26.9975 50.7158 26.0657 50.351 25.9322 50.534C25.3488 51.3292 25.6826 52.3217 25.5313 53.2126C25.5086 53.3447 25.1802 53.1572 25.1204 53.3459C24.9004 54.0417 24.2137 55.1741 24.827 55.9587C25.3214 56.588 25.9636 56.0802 26.1203 56.5114C26.1961 56.7195 24.9427 56.6445 24.8923 56.6793C24.3909 57.0172 24.8455 57.4326 24.5773 57.7779C24.5215 57.8491 24.0494 57.6608 24.0071 57.7226C23.8576 57.9325 24.0117 58.223 23.9107 58.4329C23.8642 58.5268 23.4895 58.4234 23.4934 58.5203C23.4986 58.7513 23.6049 58.9784 23.9053 59.2699C23.9328 59.2965 24.4434 59.2736 24.4179 59.4379C24.3748 59.7033 24.645 60.1056 24.1969 60.3215C24.0625 60.3852 23.1782 60.1902 23.7362 60.5175C23.8527 60.586 24.9293 60.7739 23.9512 60.7893C23.7898 60.7926 22.4424 60.8849 23.1943 61.2478C23.3922 61.3434 24.2356 61.6635 24.0697 61.7392C24.0437 61.7487 23.5796 61.583 23.5088 61.6607C23.2673 61.9363 23.2297 62.2736 22.9905 62.5587C22.9255 62.6346 22.4594 62.3951 22.378 62.5117C22.1532 62.832 22.1582 63.2963 22.2218 63.6733C22.2462 63.8125 22.6907 63.82 22.7338 63.8394C23.4379 64.1541 22.4093 64.0154 22.3367 64.051C21.9003 64.276 22.31 64.614 22.107 64.8661C22.052 64.9359 21.5835 64.7723 21.5361 64.778C21.0694 64.8428 21.972 64.9193 22.0398 65.0419C22.233 65.3861 22.108 65.6933 21.9666 65.9657C21.9139 66.0655 21.3803 65.82 21.3392 65.9111C21.0846 66.4473 20.9735 67.0393 21.1387 67.6556C21.1709 67.7719 21.6321 67.8069 21.7274 67.851C22.3962 68.158 21.3702 68.157 21.2634 68.1858C20.7786 68.3171 21.148 68.4934 21.0192 68.6765C20.3802 69.5691 20.3045 70.8316 20.2172 71.7901C20.0978 73.0379 20.2901 74.0701 19.8634 75.1897C19.8367 75.261 19.2283 75.0463 19.197 75.1059C18.8197 75.8809 18.8467 76.7334 18.4368 77.5027C18.4041 77.5661 17.8229 77.3336 17.7496 77.4305C17.5949 77.6285 17.5486 77.9129 17.6814 78.1781C17.7452 78.3072 18.3111 78.2805 18.365 78.4081C18.4919 78.7056 18.4616 78.9872 18.291 79.2252C18.217 79.3261 17.6329 79.0174 17.5853 79.1596C17.2484 80.125 16.8598 81.0601 17.4213 82.2385C17.4598 82.3192 18.7577 82.6742 18.4672 82.7623C18.0992 82.6911 17.6698 82.594 17.2782 82.511C16.6711 83.8902 16.7414 85.4062 16.4245 86.8548C16.4108 86.9158 15.7188 86.6495 15.6882 86.7667C15.511 87.445 15.122 88.0548 15.6584 88.9098C15.7106 88.9945 17.0091 89.2489 16.7603 89.4077C16.7153 89.4355 16.4616 89.7019 16.1591 89.7176C16.1138 89.7187 15.5247 89.5273 15.4801 89.6215C15.2312 90.1713 15.2035 90.7998 15.4228 91.4538C15.4595 91.5596 16.1383 91.6082 16.1703 91.6849C16.3943 92.2283 15.7605 92.6221 16.2413 93.2013C16.5666 93.5898 17.7366 93.736 18.8221 94.1475C18.9754 94.2056 18.9558 94.3965 19.6091 94.5534C21.2521 94.9486 23.076 95.2639 24.8246 95.6957C25.1156 95.7675 24.9096 95.8786 25.2356 95.9519C25.2357 95.9519 25.2357 95.9519 25.2358 95.952C25.3319 95.9735 25.4742 95.9919 25.6888 96.0049C25.7521 96.0083 26.0899 95.8946 26.4079 95.9193C26.6278 95.9363 27.2836 96.1422 27.569 96.14C27.854 96.1378 27.3088 95.9423 27.6492 95.9089C27.9932 95.8762 28.7408 96.0926 28.8654 95.9011ZM32.4134 36.5623C32.744 36.8101 31.3788 36.5289 31.7492 36.4244C31.7687 36.4197 32.3974 36.5497 32.4134 36.5623ZM24.1366 19.2538C24.6453 19.2346 24.1128 19.6885 23.7271 19.7163C23.3433 19.7431 23.9831 19.2589 24.1366 19.2538ZM23.3829 17.0546C23.812 17.12 22.564 17.828 22.6963 17.4441C22.7036 17.422 23.3581 17.0507 23.3829 17.0546ZM19.319 93.4821C19.3492 93.4912 19.3474 93.6312 19.3161 93.6275C18.5624 93.5329 18.5681 93.2535 19.319 93.4821ZM22.6398 14.8698C22.8415 14.8543 22.7595 15.1611 22.5083 15.1807C22.3068 15.1961 22.3897 14.8886 22.6398 14.8698ZM31.9034 45.5026C31.9251 45.5102 31.9236 45.6105 31.7974 45.5801C31.3911 45.482 31.5371 45.3748 31.9034 45.5026ZM20.8601 11.4305C21.1647 11.9166 22.2791 11.7181 21.8732 11.2282C21.8003 11.1392 21.6892 11.601 21.536 11.5197C21.2587 11.3694 21.762 10.9049 21.321 10.8354C21.2415 10.8226 20.8413 11.4036 20.8593 11.4321C20.8596 11.4316 20.8598 11.4311 20.8601 11.4305ZM34.0211 37.0235C34.0383 37.0309 34.0256 37.1673 34.007 37.1665C33.5587 37.1412 33.5856 36.8666 34.0211 37.0235ZM31.6205 51.3113C31.6638 51.3287 31.6395 51.6465 31.5958 51.6473C30.7284 51.621 30.781 50.9792 31.6205 51.3113ZM31.2564 28.4209C31.5346 28.1055 31.4881 27.9294 30.9957 28.0567C31.0894 28.1738 31.1639 28.3023 31.2564 28.4209Z" fill="black"/>
<path d="M33.0703 45.377C33.1922 45.3135 33.2958 45.4708 33.3597 45.6535C33.3798 45.7103 33.3167 45.9072 33.3286 45.9554C33.3517 46.0491 33.4137 45.964 33.433 46.0722C33.4392 46.109 33.3473 46.4224 33.3555 46.4536C33.4011 46.6215 33.4946 46.5657 33.5585 46.6602C33.8736 47.1247 34.2343 47.3638 34.6013 47.6286C34.7223 47.7162 34.819 48.0376 34.9832 47.9605C35.0024 47.9514 35.0542 47.6868 35.0623 47.6662C35.1869 47.3516 35.0475 47.8743 35.0621 47.9538C35.1204 48.268 35.2524 48.3308 35.3942 48.2673C35.4548 48.2396 35.5238 47.7139 35.5074 48.0161C35.5064 48.0365 35.4297 48.3051 35.4367 48.3384C35.4528 48.413 35.5238 48.3821 35.5431 48.4108C35.58 48.4675 35.5884 48.467 35.6321 48.4832C35.6912 48.5078 35.7321 48.6625 35.8116 48.6206C35.8287 48.6109 35.8747 48.3306 35.9078 48.2906C35.9408 48.2507 35.9939 48.2921 35.9985 48.3625C36.0032 48.433 35.9444 48.6453 35.9364 48.6956C35.8679 49.1192 36.0706 48.5638 36.0826 48.5527C36.2981 48.3595 36.3583 48.7256 36.5083 48.7676C36.6222 48.7994 36.7681 48.7303 36.8726 48.7769C36.9969 48.8336 37.0728 49.0072 37.2036 49.0192C37.2173 49.0208 37.2734 48.711 37.2903 48.7125C37.4694 48.7291 37.6308 48.8157 37.7539 49.0679C37.7662 49.0934 37.6827 49.3491 37.6914 49.3901C37.7454 49.6367 37.7931 50.1879 38.1186 49.0817C38.1791 49.1468 38.2543 49.218 38.2652 49.4607C38.2723 49.6167 38.1673 49.8839 38.2455 49.7789C38.2631 49.7556 38.3053 49.5081 38.3273 49.4917C38.4197 49.4233 38.4795 49.5244 38.5795 49.4203C38.5999 49.3986 38.6465 49.1817 38.6597 49.1441C38.7675 48.8404 38.7027 49.377 38.7064 49.4178C38.7354 49.7257 38.8307 49.6344 38.9173 49.6667C38.9374 49.6743 38.98 49.3822 39.0017 49.3794C39.1133 49.369 39.213 49.4259 39.2838 49.58C39.2993 49.6149 39.2228 49.8482 39.2274 49.877C39.2485 50.0008 39.3645 49.553 39.3867 49.6635C39.3915 49.6862 39.3384 49.8884 39.3349 49.9113C39.2798 50.2698 39.4199 49.7791 39.4294 49.7704C39.5524 49.6467 39.488 50.1784 39.5906 50.1283C39.6029 50.1219 39.6395 49.861 39.6706 49.8589C39.8778 49.8433 40.0628 49.9727 40.2057 50.2227C40.228 50.2612 40.1635 50.4411 40.16 50.4645C40.1066 50.8298 40.2383 50.3562 40.2521 50.341C40.358 50.2329 40.3357 50.6493 40.5193 50.0996C40.7942 50.3829 41.184 50.1691 41.389 50.7393C41.3917 50.7459 41.3324 50.9662 41.3381 50.9784C41.4065 51.1277 41.4686 50.7778 41.631 50.3767C41.6717 50.2765 41.6026 50.7954 41.5984 50.8331C41.5824 50.9735 41.4893 51.296 41.4885 51.3237C41.4844 51.5409 41.73 50.4601 41.7892 50.4771C41.7906 50.4794 41.7365 50.6752 41.7368 50.6962C41.7378 50.7622 41.7716 50.6878 41.7708 50.76C41.7686 50.9269 41.6593 51.4493 41.7834 51.1603C41.7993 51.1229 41.9309 50.5145 41.9771 50.5583C41.9954 50.5762 42.0911 50.5924 42.1082 50.6386C42.1252 50.6847 42.062 50.8727 42.0619 50.8816C42.0729 51.1554 42.0213 51.2538 41.9688 51.6388C41.9167 52.0214 42.1161 51.1259 42.1539 51.0302C42.1916 50.9348 42.1945 51.1573 42.1903 51.2328C42.1861 51.3085 42.1417 51.4259 42.1435 51.4697C42.1563 51.755 42.2797 51.0375 42.3374 50.9034C42.4734 50.5873 42.3653 51.2546 42.404 51.3309C42.4145 51.3518 42.4374 51.2005 42.4535 51.19C42.5169 51.1505 42.5003 51.3602 42.6017 51.1902C42.6183 51.1622 42.7557 50.7878 42.7195 51.0799C42.7142 51.1219 42.6645 51.2789 42.6778 51.3203C42.6977 51.3824 42.7482 51.4316 42.7956 51.3873C42.8306 51.3545 42.8624 51.0852 42.8758 51.175C42.8817 51.215 42.8191 51.3611 42.8333 51.4233C42.8473 51.4853 42.918 51.4956 42.9454 51.4969C42.9729 51.498 43.0046 51.2978 43.0099 51.285C43.0405 51.2124 43.1127 51.1312 43.1171 51.1327C43.3455 51.1709 43.476 51.548 43.719 51.4972C43.738 51.4936 43.7732 51.2916 43.7766 51.289C43.8545 51.2215 43.6845 51.738 43.6842 51.9245C43.7726 51.5203 43.7797 51.5993 43.8313 51.5658C43.8562 51.5494 43.8818 51.3913 43.8873 51.3759C43.9719 51.1482 43.9211 51.458 43.9119 51.5214C43.8779 51.7548 43.9623 51.4905 43.9399 51.6463C43.9178 51.8006 43.8346 52.0174 43.8751 52.0238C43.9196 51.8841 43.9774 51.5042 44.0216 51.4518C44.1878 51.2549 44.3308 51.6021 44.4152 51.6539C44.4992 51.707 44.5345 51.6891 44.5759 51.7525C44.6506 51.8666 44.6778 51.5917 44.7654 51.4868C44.853 51.3825 44.6721 52.0238 44.6479 52.1657C44.6237 52.3071 44.6666 52.1657 44.6592 52.2447C44.6517 52.3235 44.6068 52.4133 44.6248 52.4474C44.6429 52.4811 44.7684 52.2492 44.8109 52.1069C44.9011 51.8051 44.9463 51.4757 44.9845 51.6062C44.9867 51.6138 44.9351 51.7793 44.9454 51.8001C45.0285 51.959 45.1449 51.9965 45.2323 52.1367C45.2442 52.1562 45.1873 52.3363 45.1938 52.3497C45.2615 52.4885 45.2999 52.1717 45.4316 51.8439C45.3136 52.2951 45.2773 52.5796 45.3492 52.5975C45.3923 52.6086 45.4309 52.4101 45.4914 52.2784C45.5095 52.2387 45.5087 52.3805 45.5358 52.2897C45.6246 51.9934 45.6747 51.6493 45.7171 51.8033C45.7188 51.8105 45.6701 51.9718 45.6789 51.9847C45.7362 52.0682 45.8181 51.7582 45.9048 51.7427C45.9727 51.7308 46.0375 51.9487 46.1003 51.997C45.9843 52.4857 46.0771 52.3885 46.1822 52.0609C46.2244 52.0865 46.2777 52.0806 46.3108 52.138C46.3222 52.1575 46.2797 52.2941 46.2781 52.3097C46.2521 52.5526 46.3474 52.2353 46.3601 52.2255C46.4947 52.1312 46.525 52.3936 46.6811 52.186C46.6867 52.1784 46.7687 51.8545 46.7401 52.0995C46.738 52.1162 46.6698 52.2556 46.7148 52.2794C46.7597 52.3036 46.8094 52.4984 46.9105 52.3665C46.9349 52.3345 47.036 52.0866 47.0211 52.2972C47.019 52.3257 46.9929 52.4158 46.9873 52.4681C46.9697 52.6346 47.0559 52.3167 47.0159 52.5947C46.976 52.8728 46.9786 53.0851 47.0896 52.9137C47.093 52.9087 47.1677 52.6613 47.1878 52.6704C47.2199 52.685 47.2556 52.7482 47.2911 52.7548C47.3082 52.7578 47.3335 52.6012 47.3371 52.5991C47.4701 52.5409 47.5184 52.6978 47.626 52.7845C47.6457 52.8004 47.7573 52.612 47.7625 52.7835C47.7686 52.9704 47.5486 53.6908 47.6992 53.537C47.7602 53.4741 48.0299 52.5728 47.9979 53.0636C48.178 52.9827 48.2642 53.2505 48.4557 53.1227C48.4643 53.117 48.5434 52.8776 48.5587 52.8851C48.5814 52.8965 48.5679 53.0134 48.5833 53.0249C48.6473 53.0759 48.7356 52.9951 48.8013 53.0268C48.8263 53.0386 48.7901 53.1517 48.8201 53.1653C48.85 53.1787 48.9063 53.0329 48.9317 53.1157C48.9508 53.1788 48.9114 53.4917 48.9461 53.5355C49.0181 53.2356 49.046 53.2483 49.1165 53.1817C49.13 53.1688 49.1436 53.0625 49.1513 53.051C49.183 53.0024 49.1807 53.0925 49.2125 53.039C49.2202 53.0262 49.2441 52.925 49.2518 52.9089C49.3173 52.7681 49.3148 53.0085 49.3143 53.0497C49.3128 53.2072 49.359 53.0805 49.371 53.1454C49.3829 53.2099 49.3274 53.274 49.3491 53.3163C49.3943 53.4036 49.4782 53.405 49.5405 53.4237C49.5654 53.4305 49.5788 53.2961 49.5831 53.294C49.6428 53.2735 49.6634 53.4229 49.7525 53.1728C49.6331 53.8451 49.799 53.1158 49.8421 53.2669C49.8455 53.2791 49.7801 53.5916 49.7467 53.6326C49.7134 53.6738 49.7019 53.5688 49.6537 53.6341C49.6423 53.6491 49.5304 53.936 49.5203 53.9532C49.4415 54.0857 49.5459 53.6111 49.5496 53.5844C49.5882 53.2974 49.461 53.6068 49.442 53.6269C49.3551 53.7167 49.3174 53.6387 49.2475 53.7023C49.2019 53.7434 49.1238 54.0614 49.0988 54.0473C49.0156 54.0016 49.09 53.5439 48.9131 53.9209C48.8752 54.0015 48.81 54.3604 48.8099 54.0703C48.8099 54.0523 48.8216 53.7865 48.7553 53.9449C48.7469 53.965 48.7225 54.0697 48.7158 54.0778C48.6711 54.1301 48.6699 54.0432 48.6264 54.0781C48.5829 54.1131 48.5277 54.1676 48.4972 54.1259C48.4787 54.101 48.4953 53.8972 48.4956 53.8464C48.497 53.7 48.409 53.9257 48.4295 53.7511C48.4503 53.5749 48.5499 53.3212 48.5248 53.1984C48.4572 53.4787 48.3853 53.7661 48.316 54.0482C48.2044 54.0214 48.1141 53.9118 47.9972 53.9062C47.9826 53.9059 47.9607 54.0632 47.9441 54.067C47.8741 54.0826 47.8443 53.9628 47.7674 53.9974C47.7078 54.0248 47.612 54.1846 47.548 54.2203C47.5945 53.8766 47.4878 53.9794 47.4371 53.9398C47.4193 53.9259 47.4422 53.8342 47.4348 53.8019C47.4065 53.682 47.3605 53.9911 47.3343 54.037C47.2219 54.2339 47.3789 53.5393 47.3 53.5425C47.2959 53.5422 47.1597 53.9074 47.1475 53.93C47.069 54.0758 47.1709 53.7987 47.1506 53.7668C47.1136 53.7086 47.101 53.6125 47.0178 53.714C46.9934 53.7439 46.8977 53.975 46.9083 53.7865C46.9096 53.7618 46.9415 53.6362 46.9398 53.6282C46.9067 53.4945 46.812 53.8914 46.7446 54.0217C46.6772 54.1523 46.6867 53.8686 46.6943 53.7867C46.7135 53.5753 46.7374 53.7019 46.7437 53.6819C46.8187 53.444 46.7691 53.4787 46.7434 53.4529C46.8314 53.0576 46.7836 53.0725 46.7164 53.4277C46.7092 53.4664 46.7415 53.4338 46.7434 53.4529C46.626 53.835 46.5668 53.88 46.6004 53.5064C46.6163 53.3311 46.686 53.1355 46.5956 53.1946C46.5546 53.2213 46.5028 53.4996 46.4556 53.5701C46.3477 53.7316 46.3207 53.4582 46.2417 53.4871C46.213 53.4979 46.2016 53.6557 46.1806 53.6685C46.1249 53.7034 46.1117 53.5811 46.0517 53.6334C46.0462 53.6383 46.0183 53.8023 46.0035 53.8023C45.8901 53.8058 45.82 53.6869 45.7072 53.6666C45.6527 53.6569 45.5329 53.7347 45.4804 53.708C45.389 53.663 45.326 53.3963 45.228 53.4429C45.1642 53.473 45.1359 53.647 45.0848 53.7611C44.9858 53.9832 45.0011 53.5629 45.0054 53.4968C45.0056 53.4946 45.0623 53.4611 45.0581 53.368C45.087 53.1798 45.0062 53.496 45.0054 53.4968C45.0079 53.4547 44.9231 53.4001 44.8966 53.4306C44.8821 53.4473 44.8489 53.6142 44.8421 53.6198C44.681 53.7501 44.5438 53.7776 44.4341 53.6805C44.4327 53.6767 44.4806 53.4871 44.4766 53.4806C44.4225 53.3846 44.3204 53.6108 44.2263 53.7425C44.1323 53.8741 44.0943 53.8222 44.1361 53.4839C44.0801 53.5192 44.0486 53.3618 44.0318 53.2655C44.015 53.1691 43.9202 53.5501 43.9151 53.5572C43.7537 53.7849 43.7443 53.5581 43.6441 53.5076C43.5965 53.4831 43.4809 53.5251 43.4149 53.5605C43.3626 53.5892 43.3576 53.4931 43.303 53.5467C43.2956 53.5539 43.26 53.7306 43.2567 53.7372C43.1617 53.9423 43.2846 53.5142 43.2932 53.4359C43.3248 53.1511 43.3392 52.9974 43.2503 53.1205C43.2299 53.1484 43.0442 53.7686 43.0109 53.8028C42.9681 53.8456 43.0329 53.6219 42.9867 53.6722C42.9828 53.6763 42.9508 53.8155 42.9316 53.8069C42.842 53.769 42.7568 53.6742 42.6541 53.6758C42.6401 53.6755 42.6049 53.9023 42.5839 53.9058C42.4853 53.9221 42.3858 53.9032 42.321 53.7859C42.3052 53.7563 42.3565 53.598 42.3628 53.5499C42.4009 53.2583 42.2612 53.671 42.2524 53.6785C42.0403 53.8617 42.0044 53.4626 41.7939 53.6255C41.7824 53.6347 41.6037 54.0893 41.6653 53.6889C41.6693 53.6625 41.7337 53.2514 41.6411 53.5264C41.6353 53.5436 41.6055 53.7557 41.5767 53.7304C41.548 53.705 41.4606 53.8401 41.4687 53.6023C41.4711 53.5277 41.5328 53.1119 41.4124 53.434C41.4043 53.4558 41.1622 54.1927 41.2585 53.6761C41.2744 53.591 41.4061 53.0467 41.2886 53.3191C41.2659 53.3721 41.2555 53.4961 41.2114 53.569C41.1436 53.6817 41.1247 53.5282 41.0176 53.7676C40.9989 53.8098 40.8742 54.1806 40.9112 53.8933C40.917 53.8482 40.969 53.6648 40.9583 53.6423C40.9074 53.5343 40.8007 53.6495 40.7557 53.5116C40.7398 53.4629 40.8241 53.1627 40.8154 53.0778C40.8068 52.993 40.7696 52.9062 40.7082 53.0409C40.6466 53.176 40.5648 53.6648 40.5121 53.6987C40.2826 53.8477 40.1618 53.5404 39.9831 53.474C39.9566 53.4643 39.938 53.6456 39.8958 53.6444C39.7403 53.6398 39.436 53.7851 39.3951 53.3799C39.3626 53.0537 39.5512 52.8333 39.5006 52.6944C39.4762 52.6273 39.2937 53.221 39.2798 53.239C39.1427 53.4201 39.1413 53.1452 39.0393 53.2168C39.0182 53.2318 38.9774 53.48 38.96 53.4902C38.9001 53.5274 38.8736 53.4113 38.8213 53.426C38.7977 53.4331 38.7572 53.6231 38.741 53.6064C38.7015 53.5685 38.6786 53.4843 38.6747 53.3001C38.6744 53.2832 38.758 53.0496 38.7254 53.0362C38.6725 53.0155 38.6446 52.8283 38.5371 53.0033C38.505 53.056 38.401 53.4967 38.4311 53.1872C38.4373 53.1226 38.5726 52.5937 38.4173 53.0457C38.3915 53.1201 38.1652 53.7318 38.2194 53.3269C38.2336 53.2203 38.3095 52.7795 38.2704 52.845C38.2647 52.8555 38.2211 53.0965 38.1965 53.1175C38.1109 53.1874 38.0463 53.1531 37.9593 53.2205C37.9359 53.239 37.9049 53.4923 37.8719 53.5122C37.7811 53.5675 37.701 53.494 37.6453 53.4066C37.6249 53.3739 37.6929 53.1663 37.6963 53.1433C37.7513 52.768 37.615 53.267 37.5974 53.2953C37.4902 53.4634 37.4953 53.2213 37.4197 53.2769C37.399 53.2917 37.3543 53.5345 37.3459 53.5556C37.2619 53.7625 37.3894 53.3315 37.3786 53.2812C37.3488 53.1386 37.2758 53.1496 37.2063 53.1735C37.1807 53.1826 37.1402 53.4681 37.1179 53.4733C36.9848 53.5092 36.8644 53.47 36.7829 53.2988C36.7677 53.266 36.8335 53.0464 36.8407 52.9953C36.8916 52.6376 36.7317 53.1144 36.71 53.1595C36.6115 53.3646 36.6385 53.166 36.5865 53.1977C36.3313 53.3576 36.0997 53.1991 35.9192 53.0926C35.6833 52.9566 35.5336 52.7089 35.272 52.7354C35.2555 52.7369 35.1979 53.0524 35.1827 53.0578C34.9889 53.1142 34.8446 52.9708 34.6467 53.0432C34.6306 53.0487 34.5804 53.3543 34.5521 53.3735C34.4934 53.415 34.4367 53.3929 34.4112 53.2905C34.3987 53.2411 34.4917 52.9823 34.4779 52.9377C34.4458 52.8331 34.3921 52.804 34.324 52.8467C34.2949 52.8656 34.2575 53.1843 34.2254 53.1846C34.0047 53.193 33.7812 53.23 33.6637 52.7884C33.6556 52.7582 33.7963 52.1009 33.7356 52.2223C33.6906 52.4042 33.6405 52.6185 33.5939 52.8131C33.259 52.8836 33.006 52.6183 32.7043 52.5433C32.6916 52.5403 32.63 52.9026 32.6048 52.8988C32.459 52.8771 32.2921 52.9642 32.2269 52.5839C32.2204 52.5467 32.3787 51.9045 32.3122 51.9957C32.3003 52.0124 32.2144 52.0893 32.1644 52.2274C32.1572 52.2483 32.0986 52.5513 32.0752 52.5576C31.9407 52.5888 31.8269 52.5053 31.7472 52.3031C31.7345 52.2699 31.832 51.9471 31.8236 51.9204C31.7639 51.7331 31.5965 51.967 31.5707 51.6549C31.5538 51.4442 31.7109 50.8783 31.8086 50.311C31.8224 50.2309 31.7861 50.2107 31.8607 49.8831C32.0482 49.0594 32.2779 48.1638 32.4755 47.2854C32.5085 47.1392 32.457 47.2179 32.4951 47.0552C32.4951 47.0552 32.4951 47.0551 32.4951 47.0551C32.5063 47.0072 32.5253 46.9382 32.5566 46.8366C32.5658 46.8067 32.6383 46.6672 32.6836 46.5157C32.715 46.411 32.7815 46.0748 32.8264 45.9425C32.8713 45.8105 32.8202 46.0937 32.8791 45.9407C32.9385 45.786 33.0175 45.4055 33.0703 45.377ZM43.9561 52.8315C43.9645 52.6399 43.8005 53.3172 43.8765 53.1612C43.8804 53.1528 43.9558 52.8409 43.9561 52.8315ZM48.2047 53.528C48.2118 53.2943 48.1029 53.6196 48.0945 53.7993C48.0862 53.978 48.2027 53.5984 48.2047 53.528ZM48.7149 53.4603C48.7018 53.2783 48.5299 53.9746 48.6203 53.8434C48.6255 53.8359 48.7157 53.4708 48.7149 53.4603ZM32.002 50.1822C32.0051 50.1668 31.9804 50.1462 31.9762 50.1613C31.8751 50.5259 31.9246 50.5661 32.002 50.1822ZM49.2217 53.3905C49.2264 53.2963 49.1543 53.3904 49.1484 53.5078C49.1438 53.6018 49.2161 53.5072 49.2217 53.3905ZM42.3198 51.697C42.3219 51.6857 42.3042 51.671 42.2898 51.7343C42.2435 51.9381 42.2849 51.8867 42.3198 51.697ZM50.0166 53.5565C49.9045 53.509 49.9566 52.9679 50.069 53.0605C50.0895 53.0769 49.9809 53.213 49.9992 53.2672C50.0329 53.3648 50.144 53.0507 50.158 53.2373C50.1606 53.2709 50.0228 53.56 50.0162 53.5572C50.0163 53.5569 50.0164 53.5567 50.0166 53.5565ZM44.1266 52.014C44.1281 52.0049 44.1023 51.9899 44.0996 51.9986C44.034 52.2107 44.086 52.2404 44.1266 52.014ZM41.2643 50.9373C41.268 50.9145 41.2088 50.8771 41.2019 50.8973C41.0711 51.3042 41.1911 51.3782 41.2643 50.9373ZM46.0983 52.0104C46.1735 51.8259 46.2144 51.8142 46.1822 52.0606C46.1553 52.04 46.1256 52.0302 46.0983 52.0104Z" fill="black"/>
</g>
<defs>
<clipPath id="clip0_21_461">
<rect width="76" height="91" fill="white" transform="matrix(1.19249e-08 -1 -1 -1.19249e-08 91 76)"/>
</clipPath>
</defs>
</svg>
