<svg width="100" height="56" viewBox="0 0 100 56" fill="none" xmlns="http://www.w3.org/2000/svg">
<g opacity="0.5" clip-path="url(#clip0_21_469)">
<path d="M30.7434 -30.0161C30.585 -29.6365 30.6205 -29.0958 30.7114 -28.6735C30.7395 -28.5412 30.9535 -28.5677 30.9819 -28.4747C31.0369 -28.2931 30.9138 -28.1549 30.9841 -27.9726C31.0083 -27.912 31.3414 -27.9229 31.3593 -27.8607C31.4544 -27.5204 31.3272 -27.2371 31.3471 -26.9059C31.444 -25.2751 31.3191 -23.711 31.2095 -22.0971C31.1736 -21.5649 31.3473 -20.8793 31.1409 -20.3597C31.1166 -20.299 30.858 -20.3836 30.8343 -20.3755C30.4714 -20.2461 31.0148 -20.2141 31.066 -20.0785C31.2677 -19.5405 31.2022 -18.9937 31.0263 -18.5416C30.9507 -18.3494 30.4668 -18.6414 30.7245 -18.3887C30.7418 -18.3712 31.0255 -18.373 31.0461 -18.313C31.0921 -18.177 31.0047 -17.9499 31.0109 -17.8497C31.024 -17.6563 31.0162 -17.6261 30.9909 -17.4499C30.9587 -17.2087 31.0472 -16.8992 30.9436 -16.6526C30.9208 -16.6001 30.6546 -16.7223 30.5933 -16.6429C30.5321 -16.5635 30.5187 -16.3271 30.5714 -16.2372C30.6241 -16.1473 30.8467 -16.1421 30.8943 -16.1194C31.2955 -15.9309 30.67 -15.7656 30.6506 -15.7336C30.3054 -15.1467 30.5472 -14.548 30.4491 -13.957C30.3745 -13.5084 30.1905 -13.0472 30.1361 -12.6174C30.0724 -12.1051 30.1454 -11.6484 30.04 -11.1585C30.0293 -11.1067 29.7305 -11.2227 29.7169 -11.1595C29.5727 -10.4886 29.5004 -9.80969 29.5952 -9.09931C29.6049 -9.02804 29.8842 -9.0681 29.9096 -8.99411C30.0607 -8.54183 30.4625 -7.79732 29.2854 -7.75357C29.2847 -7.46552 29.2759 -7.11721 29.4617 -6.8264C29.581 -6.63898 29.8885 -6.74585 29.7352 -6.56887C29.701 -6.52888 29.4645 -6.63076 29.432 -6.56746C29.2956 -6.30088 29.3244 -5.97805 29.1527 -5.72087C29.1172 -5.66865 28.9016 -5.72291 28.8597 -5.71376C28.5204 -5.63466 29.0094 -5.3159 29.039 -5.26008C29.2614 -4.83556 29.1041 -4.58227 29.0539 -4.23249C29.0423 -4.15131 28.7696 -4.29811 28.7483 -4.22179C28.6419 -3.82526 28.5999 -3.40238 28.6617 -2.98464C28.6761 -2.8916 28.9313 -2.92951 28.9505 -2.88287C29.0315 -2.67783 28.5689 -2.71769 28.6385 -2.5225C28.6525 -2.48147 28.862 -2.466 28.8835 -2.45514C29.2207 -2.28525 28.7023 -2.28164 28.6869 -2.25607C28.4792 -1.9349 28.9639 -1.62 28.8333 -1.29729C28.8173 -1.25874 28.575 -1.39507 28.546 -1.2839C28.3512 -0.543555 28.2927 0.265641 28.3682 1.04611C28.3796 1.16739 28.5811 1.11803 28.6031 1.12944C28.9442 1.3123 28.447 1.30318 28.4227 1.33775C28.2425 1.61255 28.5973 1.96211 27.9933 2.06333C27.9795 3.36014 27.4645 4.56202 27.7433 5.90003C27.7462 5.91693 27.9758 5.92832 27.9806 5.96186C28.0406 6.36606 27.7042 6.23078 27.2384 6.40851C27.1219 6.45343 27.6005 6.73794 27.6346 6.76165C27.7617 6.84852 28.1033 6.84245 28.1263 6.86808C28.3048 7.07802 27.2185 6.85613 27.1801 7.08978C27.1807 7.0974 27.386 7.10227 27.4026 7.12539C27.4549 7.19736 27.3653 7.24364 27.424 7.31542C27.5604 7.48006 28.0772 7.6218 27.7353 7.77559C27.6912 7.79491 27.0856 7.64596 27.0802 7.8597C27.0785 7.94498 27.0074 8.3112 27.0296 8.42132C27.0517 8.53131 27.2586 8.49522 27.2659 8.50407C27.4767 8.82723 27.6013 8.741 27.9575 8.94739C28.3114 9.15335 27.415 8.95454 27.3046 8.99331C27.1947 9.03224 27.3713 9.2731 27.4358 9.33603C27.5004 9.39895 27.634 9.35849 27.6676 9.41021C27.8861 9.75237 27.1998 9.46034 27.0412 9.53214C26.667 9.7014 27.2994 9.99722 27.3267 10.2178C27.3343 10.2776 27.1924 10.2047 27.1697 10.2527C27.0822 10.443 27.2657 10.5994 27.0396 10.7935C27.0024 10.8253 26.5801 10.9397 26.8471 11.1096C26.8856 11.1338 27.0558 11.1147 27.0773 11.2063C27.1098 11.3431 27.105 11.5785 27.0276 11.7056C26.9705 11.7995 26.7257 11.6368 26.7862 11.7785C26.8132 11.8415 26.9859 11.7643 27.0235 11.8803C27.0612 11.9957 27.0073 12.2642 26.9841 12.3659C26.9608 12.4674 26.7717 12.376 26.7569 12.3819C26.6715 12.4184 26.5425 12.5982 26.5399 12.6157C26.515 12.7423 26.4978 12.8688 26.4858 12.9951L26.6947 12.6341C26.163 13.1602 25.7702 13.7923 25.1455 14.1997C25.0884 14.2374 24.9916 14.0514 24.9815 14.0556C24.7495 14.1411 25.2381 14.4383 25.2303 14.6819C24.9825 14.3498 24.9573 14.4691 24.8032 14.5404C24.7287 14.5746 24.6591 14.4245 24.6431 14.4167C24.3985 14.3072 24.5373 14.5997 24.5621 14.6621C24.6537 14.892 24.4113 14.7343 24.4716 14.8884C24.5309 15.0413 24.7718 15.1396 24.6493 15.2382C24.5217 15.1545 24.365 14.786 24.2343 14.8159C23.7417 14.9293 23.2937 15.7033 23.0363 15.9599C22.7803 16.2169 22.6745 16.2724 22.5467 16.4477C22.3157 16.7641 22.2466 16.4648 21.9871 16.5229C21.7275 16.5819 22.2434 17.0181 22.3096 17.15C22.376 17.2812 22.2533 17.1917 22.2719 17.2786C22.2906 17.3654 22.4221 17.3826 22.3661 17.4675C22.3098 17.5521 21.942 17.5284 21.8203 17.437C21.5623 17.243 21.4417 16.9122 21.32 17.1686C21.3131 17.1835 21.4611 17.2851 21.429 17.3353C21.1704 17.7293 20.8175 18.0381 20.5469 18.4171C20.5099 18.4693 20.6734 18.5781 20.6531 18.6101C20.4421 18.9432 20.3413 18.6139 19.9591 18.4785C20.294 18.8061 20.3901 19.0979 20.1722 19.2818C20.0415 19.3927 19.9343 19.2189 19.758 19.1813C19.7051 19.1699 19.701 19.3538 19.6234 19.2954C19.3694 19.1053 19.2344 18.7664 19.0992 19.0628C19.0936 19.0762 19.2331 19.1787 19.2057 19.2154C19.0288 19.4527 18.7965 19.2293 18.5355 19.4027C18.331 19.5387 18.1251 19.9688 17.9332 20.1725C18.2603 20.5536 17.9847 20.6335 17.6828 20.4392C17.5544 20.5668 17.3936 20.6782 17.291 20.8272C17.2556 20.8784 17.3775 20.9624 17.3817 20.9792C17.4485 21.2395 17.176 21.0365 17.1381 21.0519C16.7361 21.2292 16.6323 21.6405 16.171 21.7171C16.1545 21.7196 15.9221 21.4785 15.997 21.7354C16.0025 21.7528 16.2016 21.7832 16.0647 21.9148C15.928 22.0467 15.7689 22.4128 15.47 22.4657C15.3977 22.4785 15.1044 22.3793 15.1393 22.6221C15.1442 22.6548 15.2188 22.7144 15.2333 22.7704C15.2785 22.9493 15.0334 22.7253 15.1408 23.0004C15.2483 23.2755 15.2302 23.5596 14.9034 23.5827C14.8933 23.5838 14.6794 23.4265 14.6183 23.4834C14.5206 23.5742 14.4101 23.7366 14.3024 23.8246C14.2508 23.8667 14.1818 23.718 14.1711 23.7233C13.7722 23.9442 13.6191 24.2576 13.2901 24.6115C13.2297 24.6764 12.9019 24.6786 12.878 24.915C12.8508 25.1735 13.4808 25.626 13.0334 25.7609C12.8523 25.8146 12.081 25.2359 12.1541 25.8077C11.6144 26.1039 11.3413 26.6473 10.7693 26.9075C10.7436 26.9193 10.5163 26.7822 10.4697 26.8262C10.4006 26.8918 10.4358 27.0149 10.3887 27.0644C10.1933 27.2739 9.93044 27.3653 9.73059 27.5537C9.6545 27.6249 9.75844 27.6922 9.66745 27.7769C9.57635 27.8614 9.41352 27.7959 9.33274 27.9613C9.27213 28.0866 9.37635 28.4085 9.26952 28.5434C9.06643 28.3112 8.98158 28.3902 8.7719 28.4603C8.73153 28.4737 8.69556 28.3648 8.67294 28.3669C8.57952 28.374 8.58225 28.4869 8.48873 28.4879C8.46611 28.4883 8.39866 28.4091 8.37643 28.405C8.18509 28.3671 8.18148 28.6762 8.18079 28.7293C8.17794 28.9322 8.04446 28.8694 8.00537 28.9811C7.96619 29.0924 8.13072 29.0524 8.06314 29.1563C7.92276 29.3715 7.66929 29.5608 7.48051 29.7242C7.40476 29.7889 7.37083 29.6427 7.35798 29.6495C7.17853 29.7561 7.10935 29.9978 6.85232 29.869C7.18095 30.4833 6.71471 29.8982 6.57724 30.1925C6.5666 30.2159 6.74903 30.4794 6.84785 30.4587C6.94671 30.4381 6.98622 30.275 7.12877 30.2528C7.16226 30.2472 7.48652 30.3731 7.51627 30.373C7.74796 30.3706 7.45522 29.9819 7.44526 29.9553C7.34243 29.6653 7.71156 29.7869 7.76824 29.7705C8.02618 29.6942 8.14356 29.5079 8.35171 29.435C8.48751 29.387 8.708 29.6294 8.78408 29.5552C9.03766 29.3093 8.83465 28.8758 9.35078 28.9747C9.4613 28.9957 9.64115 29.3204 9.65518 28.9401C9.6562 28.9164 9.63331 28.5943 9.826 28.6539C9.85029 28.6614 9.91906 28.7441 9.93899 28.7397C10.0713 28.7085 10.0792 28.5918 10.2088 28.5405C10.3385 28.4892 10.5026 28.4373 10.5966 28.3145C10.6535 28.2407 10.6132 28.0107 10.6147 27.9447C10.6172 27.7562 10.8724 27.8552 10.8186 27.6724C10.7642 27.4879 10.4758 27.3777 10.5571 27.161C10.7481 27.3772 10.9516 27.5932 11.1474 27.808C11.4855 27.5238 11.7632 27.1785 12.1165 26.91C12.1605 26.877 12.2191 27.0344 12.269 27.0023C12.4795 26.8665 12.5753 26.6428 12.8057 26.5165C12.9844 26.4192 13.2661 26.4146 13.4577 26.3185C13.3335 25.972 13.6506 25.8685 13.8056 25.7033C13.8599 25.6454 13.7952 25.5764 13.819 25.5176C13.9101 25.2973 14.0343 25.5996 14.1112 25.6012C14.4414 25.6081 14.0002 25.0487 14.2383 24.8766C14.2506 24.8671 14.6444 25.0414 14.6804 25.0437C14.9104 25.0595 14.6159 24.924 14.6786 24.8369C14.7931 24.678 14.8358 24.5238 15.0822 24.471C15.1542 24.4559 15.4321 24.545 15.4093 24.3215C15.4064 24.2922 15.3161 24.1987 15.3216 24.1845C15.428 23.9353 15.695 24.2439 15.8923 24.2642C16.0896 24.2846 16.0743 23.9343 16.0552 23.8439C16.0072 23.6099 15.9292 23.829 15.911 23.8169C15.6959 23.6728 15.844 23.6074 15.9228 23.5162C15.6758 23.1949 15.8195 23.1075 16.0054 23.423C16.0254 23.4575 15.9294 23.4869 15.9228 23.5162C16.259 23.7548 16.4358 23.6814 16.3518 23.2671C16.3122 23.0728 16.1112 22.9721 16.3813 22.8476C16.5039 22.791 16.647 23.0401 16.786 23.027C17.1041 22.9978 17.1985 22.5793 17.4356 22.4408C17.5219 22.3907 17.5489 22.5719 17.6114 22.542C17.7779 22.4633 17.8238 22.2734 18.0024 22.2079C18.0188 22.2022 18.0951 22.3549 18.1399 22.3217C18.482 22.0731 18.6994 21.7606 19.0408 21.4822C19.2057 21.3477 19.5636 21.1823 19.7235 21.0299C20.0016 20.7668 20.2042 20.2768 20.4979 20.119C20.6892 20.0158 20.7664 20.1807 20.9152 20.2161C21.2035 20.286 21.1771 19.7695 21.1673 19.6926C21.1669 19.6901 20.9972 19.7728 21.0145 19.6413C20.9361 19.4593 21.1651 19.6932 21.1673 19.6926C21.1617 19.643 21.4204 19.3819 21.4991 19.3627C21.5419 19.3523 21.6343 19.4968 21.6545 19.489C22.1347 19.2999 22.5476 19.0295 22.8833 18.6573C22.8878 18.6492 22.7521 18.5078 22.7644 18.4904C22.9325 18.2437 23.2299 18.312 23.5077 18.2746C23.7853 18.2369 23.9025 18.0841 23.7922 17.7343C23.9595 17.6555 24.0622 17.3788 24.1175 17.2151C24.1728 17.0513 24.4408 17.3389 24.4559 17.3367C24.9324 17.2746 24.9713 16.9565 25.2765 16.6664C25.4213 16.5281 25.7682 16.325 25.9658 16.224C26.1224 16.1447 26.142 16.0078 26.3042 15.9561C26.3261 15.949 26.4254 16.101 26.4349 16.1023C26.7119 16.159 26.3613 15.8724 26.3389 15.7891C26.257 15.4866 26.221 15.3171 26.4836 15.2799C26.5438 15.2709 27.0749 15.6689 27.1737 15.6394C27.3011 15.5997 27.116 15.4513 27.253 15.4142C27.2646 15.4108 27.3546 15.5218 27.413 15.4676C27.6854 15.2178 27.947 14.9033 28.2571 14.676C28.2991 14.6446 28.3946 14.8631 28.4579 14.8208C28.4728 14.8108 28.4877 14.8007 28.5026 14.7905L29.155 14.2036L29.2565 13.4869C29.3486 13.1574 29.412 12.795 29.3765 12.4548C29.3666 12.3665 29.1939 12.3901 29.1496 12.3634C28.8814 12.2005 29.3366 12.1178 29.3504 12.0932C29.6844 11.5089 29.3946 10.9648 29.711 10.3649C29.7286 10.3323 30.2518 10.1503 29.8752 9.96084C29.8504 9.94803 29.4628 9.75788 29.7656 9.70436C29.7846 9.70106 29.9816 9.81165 29.9865 9.68057C29.9913 9.54947 30.177 9.3701 29.9785 9.15349C29.9163 9.08503 29.5271 8.88023 29.8924 8.77381C29.9171 8.76702 30.7234 8.64574 30.2227 8.46249C30.1403 8.43254 29.5861 8.35018 29.9088 8.20305C29.9714 8.17511 30.0805 8.26536 30.1779 8.17977C30.3283 8.04881 30.2214 7.82093 30.5083 7.67806C30.5587 7.65322 30.967 7.58183 30.7031 7.41957C30.6617 7.39414 30.4683 7.39415 30.4596 7.33166C30.4174 7.03434 30.604 6.76399 30.5325 6.45704C30.5074 6.34836 30.1915 6.34558 30.1308 6.22614C30.0701 6.1067 30.0329 5.88119 30.1954 5.79634C30.3583 5.71152 30.8239 5.91839 30.8975 5.76111C31.2194 5.07758 31.0781 4.31881 31.1819 3.59767C31.1974 3.49074 31.3598 3.61049 31.396 3.45527C31.529 2.88293 31.9137 1.92228 31.6235 1.35363C31.3894 0.897723 31.046 1.3582 30.9787 1.02962C30.946 0.871053 31.5847 0.819108 31.6114 0.786975C31.8778 0.473954 31.6577 0.184472 31.8051 -0.113675C31.8357 -0.175202 32.0715 -0.0676659 32.0949 -0.120499C32.1776 -0.300507 32.1074 -0.517575 32.1653 -0.693341C32.1918 -0.772082 32.3803 -0.723246 32.3812 -0.799884C32.3854 -0.98289 32.3378 -1.15383 32.1929 -1.35869C32.1796 -1.37738 31.9179 -1.31374 31.9358 -1.44651C31.9657 -1.66123 31.8395 -1.95675 32.075 -2.1681C32.1456 -2.23068 32.5919 -2.1544 32.3163 -2.36478C32.2588 -2.40885 31.714 -2.46236 32.2145 -2.56159C32.2971 -2.57855 32.9887 -2.77173 32.615 -2.99311C32.5167 -3.05147 32.095 -3.23072 32.1821 -3.30559C32.1956 -3.31543 32.428 -3.22511 32.4665 -3.29313C32.5981 -3.53355 32.6273 -3.80481 32.7581 -4.0526C32.7936 -4.11867 33.0248 -3.96985 33.0698 -4.0697C33.1943 -4.34422 33.2055 -4.71253 33.1841 -5.00636C33.1758 -5.11477 32.9488 -5.08116 32.9273 -5.09275C32.5767 -5.2801 33.0984 -5.26148 33.1366 -5.29622C33.3664 -5.51371 33.1669 -5.74577 33.2782 -5.96409C33.3084 -6.02443 33.5431 -5.93619 33.5675 -5.94494C33.808 -6.03787 33.3488 -6.01835 33.3178 -6.10971C33.2292 -6.36594 33.3022 -6.6211 33.3826 -6.85005C33.4125 -6.93408 33.678 -6.78654 33.7017 -6.86251C33.8478 -7.31112 33.9221 -7.79125 33.856 -8.26611C33.843 -8.35562 33.6082 -8.34243 33.5608 -8.36902C33.228 -8.55335 33.7525 -8.64383 33.808 -8.67623C34.0597 -8.82361 33.8761 -8.93081 33.9474 -9.08777C34.3005 -9.85368 34.3767 -10.8632 34.4497 -11.6324C34.5477 -12.6342 34.48 -13.4371 34.7314 -14.3644C34.7472 -14.4234 35.0518 -14.3071 35.0696 -14.3571C35.2855 -15.0063 35.297 -15.6811 35.5294 -16.3288C35.5479 -16.382 35.8382 -16.249 35.8785 -16.3325C35.9635 -16.5036 35.9956 -16.7336 35.9356 -16.9324C35.9068 -17.0293 35.6167 -16.9577 35.5929 -17.0543C35.5369 -17.2794 35.5607 -17.5057 35.655 -17.71C35.6958 -17.7967 35.9852 -17.6035 36.0138 -17.7206C36.2147 -18.5175 36.4411 -19.2949 36.189 -20.181C36.1717 -20.2417 35.5187 -20.4083 35.6698 -20.5041C35.8558 -20.4803 36.0725 -20.4413 36.2702 -20.4103C36.6215 -21.5598 36.6305 -22.7578 36.8355 -23.9368C36.8443 -23.9864 37.1902 -23.8365 37.2093 -23.9323C37.32 -24.4868 37.537 -25.0059 37.2881 -25.6374C37.2639 -25.6999 36.6076 -25.7865 36.7395 -25.9349C36.7634 -25.9609 36.9009 -26.1951 37.0561 -26.2345C37.0793 -26.2394 37.3748 -26.1398 37.4004 -26.2186C37.5439 -26.6774 37.5767 -27.1792 37.484 -27.6791C37.4684 -27.7599 37.1228 -27.7382 37.1087 -27.7963C37.0103 -28.208 37.346 -28.5772 37.1174 -28.9945C36.9626 -29.2742 36.3688 -29.2862 35.826 -29.5165C35.7494 -29.5491 35.765 -29.7025 35.4357 -29.769C34.6074 -29.9368 33.6843 -30.025 32.8031 -30.2124C32.6565 -30.2435 32.7651 -30.3502 32.6006 -30.3794C32.6006 -30.3794 32.6005 -30.3794 32.6005 -30.3794C32.552 -30.388 32.4798 -30.3899 32.3705 -30.3811C32.3382 -30.3782 32.1622 -30.2578 32.0003 -30.2492C31.8884 -30.2431 31.5592 -30.3484 31.4132 -30.3212C31.2675 -30.2941 31.5404 -30.1873 31.3654 -30.1304C31.1886 -30.0739 30.8128 -30.1793 30.7434 -30.0161ZM24.3664 16.4775C24.3501 16.2453 24.8132 16.7663 24.5912 16.7316C24.5799 16.7293 24.3669 16.4891 24.3664 16.4775ZM11.508 26.8779C11.4977 26.5875 11.8108 26.7707 11.8278 26.9873C11.8442 27.203 11.5106 26.9658 11.508 26.8779ZM9.97106 27.9285C10.0191 27.6609 10.5051 28.1893 10.2383 28.2193C10.223 28.2212 9.96816 27.9441 9.97106 27.9285ZM35.5522 -28.9437C35.537 -28.9484 35.5421 -29.0597 35.558 -29.0596C35.9406 -29.0514 35.9293 -28.829 35.5522 -28.9437ZM8.44419 28.969C8.43458 28.8561 8.64784 28.8183 8.66001 28.9589C8.66955 29.0718 8.45579 29.1092 8.44419 28.969ZM27.6956 10.2891C27.6847 10.285 27.6884 10.2052 27.752 10.2181C27.9569 10.2599 27.879 10.3581 27.6956 10.2891ZM6.03697 30.9615C6.37748 30.649 6.24585 30.0563 5.90204 30.4288C5.83954 30.496 6.16074 30.4319 6.10316 30.5436C5.99675 30.7467 5.67611 30.5834 5.62499 30.8593C5.61559 30.909 6.01804 30.9799 6.03807 30.9615C6.0377 30.9615 6.03733 30.9615 6.03697 30.9615ZM23.8904 15.7872C23.8866 15.7784 23.965 15.7012 23.9729 15.7065C24.1607 15.8381 24.0023 15.9931 23.8904 15.7872ZM28.0125 5.64974C27.9908 5.63974 28.0127 5.38511 28.0351 5.38065C28.4777 5.32437 28.4318 5.83888 28.0125 5.64974ZM17.9384 20.1856C17.7203 20.1117 17.5973 20.1878 17.6831 20.4386C17.7652 20.3515 17.8552 20.2725 17.9384 20.1856Z" fill="black"/>
<path d="M20.4417 19.205C20.4838 19.3727 20.6468 19.5326 20.7991 19.6383C20.8466 19.6715 20.9238 19.5983 20.9606 19.6191C21.0324 19.6597 21.0219 19.7406 21.0999 19.7769C21.1262 19.7886 21.2547 19.6843 21.2789 19.6985C21.4102 19.777 21.4381 19.905 21.5372 20.0035C22.0249 20.4887 22.4066 21.0201 22.8081 21.5625C22.9406 21.7414 23.1981 21.9051 23.2598 22.1316C23.2669 22.1581 23.1415 22.2097 23.1344 22.2194C23.0268 22.3702 23.2502 22.2157 23.3077 22.243C23.5357 22.3516 23.6605 22.544 23.7156 22.74C23.7387 22.8235 23.4672 22.8779 23.6386 22.8796C23.6502 22.8799 23.7618 22.7934 23.7864 22.8061C23.8421 22.8351 23.8701 22.9332 23.9002 22.963C23.9587 23.02 23.9639 23.0319 24.0025 23.0952C24.0562 23.181 24.1765 23.2519 24.2035 23.3611C24.209 23.3845 24.0702 23.4266 24.0679 23.4702C24.0656 23.5138 24.1255 23.5925 24.1711 23.6049C24.2166 23.6173 24.306 23.5515 24.331 23.5443C24.5414 23.4822 24.3399 23.7238 24.3411 23.7398C24.3666 24.0296 24.627 24.1453 24.7512 24.3615C24.8453 24.5256 24.8998 24.7269 24.9968 24.879C25.1128 25.0599 25.2675 25.1819 25.3609 25.3684C25.3709 25.388 25.221 25.4419 25.233 25.466C25.361 25.7214 25.5195 25.9575 25.7527 26.1529C25.7762 26.1725 25.8754 26.0752 25.9058 26.0909C26.0901 26.1878 26.454 26.301 26.0013 26.6714C26.0804 26.7625 26.1729 26.8751 26.3264 26.9106C26.4252 26.9336 26.5171 26.8067 26.5053 26.909C26.5029 26.932 26.3814 26.9715 26.386 27.0013C26.4056 27.1267 26.506 27.2199 26.5091 27.353C26.5094 27.3803 26.4094 27.4285 26.3953 27.444C26.2832 27.5718 26.5641 27.5242 26.5912 27.5329C26.7959 27.5995 26.8037 27.727 26.8802 27.8526C26.898 27.8817 26.7499 27.918 26.7625 27.9486C26.8298 28.1059 26.9297 28.2521 27.0693 28.3652C27.1006 28.3902 27.1909 28.3009 27.2113 28.3098C27.2998 28.35 27.1062 28.4775 27.1875 28.518C27.2043 28.5267 27.2913 28.4682 27.3028 28.4651C27.4827 28.4165 27.279 28.5747 27.28 28.5874C27.2865 28.7517 27.5647 28.7042 27.602 28.8456C27.6063 28.8626 27.4731 28.893 27.4923 28.9369C27.6194 29.2295 27.8193 29.5026 28.0642 29.726C28.1021 29.7608 28.1681 29.6842 28.1799 29.6811C28.365 29.6355 28.1662 29.7832 28.1661 29.8015C28.1707 29.9428 28.4071 29.9456 28.1965 30.1605C28.5484 30.5739 28.6763 31.1092 29.1551 31.4469C29.1609 31.4514 29.2547 31.3854 29.2659 31.3945C29.4009 31.5039 29.2308 31.5631 29.0959 31.7603C29.0623 31.8098 29.3297 31.7546 29.3497 31.7517C29.4238 31.7406 29.557 31.6352 29.5732 31.6363C29.7015 31.6485 29.2114 31.9076 29.2607 31.9929C29.263 31.9952 29.3454 31.9345 29.3583 31.9368C29.3988 31.9437 29.3762 31.9854 29.4191 31.9902C29.5184 32.0009 29.7614 31.8891 29.6689 32.0412C29.6568 32.0606 29.3766 32.1971 29.4334 32.2661C29.4562 32.2936 29.5291 32.4307 29.5682 32.4587C29.6072 32.4867 29.679 32.4126 29.6843 32.4132C29.8566 32.4513 29.882 32.3864 30.0795 32.3436C30.276 32.3014 29.8673 32.5102 29.8344 32.5559C29.8017 32.6015 29.9378 32.6239 29.9806 32.6243C30.0235 32.6246 30.0651 32.5713 30.0926 32.5774C30.2732 32.6192 29.9217 32.735 29.8789 32.8057C29.7778 32.9725 30.109 32.8742 30.1806 32.9356C30.2 32.9521 30.1239 32.9721 30.1282 32.9941C30.1461 33.0807 30.2616 33.0745 30.2259 33.2042C30.2199 33.2255 30.0847 33.3895 30.237 33.3623C30.2588 33.3582 30.3208 33.3006 30.3545 33.323C30.4051 33.3563 30.468 33.4321 30.4725 33.4956C30.4758 33.5426 30.3343 33.5654 30.3973 33.5918C30.4253 33.6035 30.4722 33.5268 30.519 33.552C30.5657 33.577 30.6184 33.6781 30.6373 33.7172C30.6561 33.7562 30.5562 33.7847 30.552 33.7911C30.5283 33.8284 30.527 33.9242 30.5307 33.9305C30.7042 34.2577 31.0176 34.4739 31.147 34.8144C31.1574 34.841 31.0588 34.8743 31.0594 34.8789C31.07 34.9838 31.2696 34.7854 31.3818 34.8003C31.1963 34.8924 31.2486 34.909 31.2624 34.9794C31.2689 35.0134 31.1904 35.0365 31.1848 35.0431C31.1032 35.1443 31.2566 35.0978 31.2887 35.0899C31.407 35.061 31.3033 35.1589 31.3825 35.14C31.461 35.1215 31.537 35.0214 31.5674 35.0793C31.5125 35.1308 31.3215 35.1815 31.319 35.2398C31.3098 35.4593 31.6133 35.6908 31.7002 35.8148C31.7875 35.9383 31.8 35.987 31.8654 36.0508C31.9835 36.1663 31.8356 36.1822 31.8301 36.2977C31.8249 36.4134 32.0924 36.2097 32.1621 36.1872C32.2314 36.1645 32.1743 36.2136 32.2171 36.2096C32.2598 36.2056 32.2843 36.1493 32.3167 36.1776C32.349 36.2061 32.2918 36.3649 32.234 36.4135C32.1114 36.5165 31.9425 36.5533 32.0464 36.6184C32.0524 36.6221 32.1182 36.5625 32.1375 36.5789C32.2882 36.71 32.3874 36.878 32.5295 37.0136C32.5492 37.0322 32.6203 36.9663 32.6326 36.9766C32.7609 37.0841 32.5952 37.1124 32.4842 37.2721C32.6786 37.142 32.8263 37.114 32.8844 37.2175C32.9195 37.2796 32.8253 37.318 32.7856 37.3928C32.7737 37.4153 32.8586 37.4258 32.8217 37.4568C32.7015 37.5582 32.527 37.6009 32.6478 37.6737C32.6533 37.6768 32.7185 37.621 32.7321 37.6346C32.8202 37.7228 32.6871 37.8132 32.7349 37.9349C32.7724 38.0303 32.9465 38.1402 33.0171 38.2333C33.2353 38.1091 33.2378 38.2327 33.1096 38.3548C33.1528 38.4166 33.1844 38.4918 33.2407 38.5435C33.26 38.5613 33.3144 38.5123 33.3227 38.5113C33.4521 38.4945 33.3235 38.6034 33.3259 38.6206C33.3578 38.8038 33.536 38.8684 33.5136 39.0726C33.5127 39.0799 33.3714 39.1696 33.5003 39.1491C33.509 39.1476 33.5482 39.0625 33.5921 39.1282C33.6363 39.1939 33.7865 39.2804 33.7735 39.4129C33.7704 39.4449 33.6874 39.5678 33.8046 39.5641C33.8205 39.5635 33.8576 39.5339 33.8854 39.5302C33.9742 39.519 33.8393 39.615 33.9807 39.5813C34.122 39.5476 34.2518 39.5689 34.2215 39.7121C34.2208 39.7166 34.1208 39.8021 34.1395 39.8314C34.1695 39.8782 34.2311 39.9339 34.2584 39.9849C34.2715 40.0093 34.1937 40.0323 34.1948 40.0372C34.2474 40.2211 34.3738 40.3025 34.497 40.4624C34.5196 40.4917 34.4794 40.6343 34.5863 40.6559C34.703 40.6799 34.9925 40.4274 34.999 40.6284C35.0012 40.7096 34.6353 41.0177 34.9103 41.0129C34.9801 41.2616 35.1984 41.4061 35.2475 41.6671C35.2497 41.6789 35.1574 41.7712 35.172 41.7936C35.1938 41.8267 35.2555 41.8173 35.2726 41.8401C35.3454 41.9349 35.3549 42.0536 35.4173 42.1494C35.4409 42.1859 35.4852 42.1438 35.5132 42.1874C35.541 42.231 35.4901 42.2987 35.5568 42.3417C35.6074 42.374 35.7702 42.3439 35.8194 42.3967C35.686 42.474 35.712 42.5147 35.7183 42.6092C35.7194 42.6274 35.6643 42.6379 35.6624 42.6478C35.654 42.6888 35.7068 42.6929 35.6955 42.7336C35.6929 42.7435 35.6476 42.7691 35.6429 42.7785C35.6012 42.8599 35.7445 42.8761 35.769 42.879C35.863 42.8898 35.817 42.9449 35.864 42.9672C35.9108 42.9895 35.9129 42.916 35.9527 42.9503C36.0351 43.0215 36.0913 43.1407 36.1435 43.2305C36.1641 43.2665 36.0918 43.2744 36.0934 43.2803C36.1204 43.3634 36.224 43.4049 36.1319 43.5106C36.4587 43.3967 36.1281 43.5718 36.2477 43.6455C36.2572 43.6512 36.4026 43.5844 36.4054 43.5404C36.4082 43.4964 36.3374 43.4716 36.345 43.4085C36.3466 43.3937 36.4459 43.2586 36.4495 43.2457C36.4775 43.1448 36.2601 43.2537 36.2465 43.2568C36.0988 43.2878 36.2017 43.133 36.2012 43.1076C36.1981 42.9918 36.1263 42.932 36.1185 42.838C36.1133 42.7767 36.2537 42.6923 36.2287 42.6557C36.1463 42.5338 35.9193 42.6016 36.0301 42.3818C36.0538 42.3347 36.2273 42.2719 36.0523 42.2478C36.0414 42.2462 35.8888 42.2409 35.9407 42.16C35.9473 42.1498 35.9943 42.1238 35.9948 42.1149C35.9969 42.0559 35.9437 42.0469 35.9361 41.9881C35.9285 41.9293 35.9251 41.8555 35.8798 41.8088C35.8526 41.7806 35.7406 41.7872 35.7102 41.7834C35.6229 41.7734 35.701 41.6671 35.6092 41.6819C35.5166 41.6968 35.4292 41.817 35.3387 41.7714C35.4631 41.6986 35.5891 41.6203 35.7136 41.5454C35.6239 41.3849 35.4983 41.2478 35.4179 41.0814C35.4081 41.0607 35.4886 41.0427 35.48 41.0195C35.4433 40.9215 35.3514 40.8693 35.3216 40.7631C35.2988 40.6808 35.3321 40.5581 35.3115 40.4702C35.1348 40.5078 35.1265 40.365 35.0692 40.2898C35.0492 40.2635 35.009 40.2884 34.9846 40.2752C34.8937 40.2252 35.0498 40.1855 35.0602 40.1521C35.1049 40.0089 34.7894 40.1742 34.7394 40.0625C34.7365 40.0568 34.867 39.8938 34.8726 39.8782C34.9088 39.7789 34.8088 39.9006 34.7762 39.8692C34.7168 39.8119 34.6504 39.786 34.6569 39.6764C34.6589 39.6444 34.7352 39.5277 34.6285 39.5271C34.6145 39.527 34.5597 39.5618 34.5538 39.5587C34.4513 39.5007 34.6283 39.3992 34.6625 39.3144C34.6968 39.2295 34.532 39.2196 34.4876 39.2236C34.3728 39.2334 34.4649 39.2777 34.457 39.2851C34.3629 39.3718 34.3511 39.3043 34.3187 39.2657C34.1383 39.3579 34.1157 39.2913 34.2857 39.2254C34.3043 39.2183 34.3059 39.2615 34.3187 39.2657C34.4718 39.1308 34.4599 39.0504 34.2568 39.0673C34.1615 39.0754 34.0894 39.158 34.0655 39.0347C34.0546 38.9787 34.1883 38.9283 34.1998 38.8672C34.2261 38.7275 34.0435 38.6666 34.0089 38.557C33.9964 38.5171 34.0841 38.5139 34.078 38.4853C34.0623 38.4092 33.9798 38.3802 33.9719 38.2995C33.9712 38.2921 34.0518 38.2661 34.042 38.2451C33.9694 38.0845 33.8515 37.9752 33.765 37.8136C33.7232 37.7355 33.6913 37.5721 33.6405 37.4953C33.5532 37.3619 33.3509 37.2506 33.3145 37.1155C33.2905 37.0274 33.3768 37.0016 33.412 36.9386C33.4807 36.8166 33.2373 36.8036 33.2003 36.8042C33.1991 36.8043 33.2163 36.882 33.1573 36.8682C33.0629 36.8937 33.2004 36.8052 33.2003 36.8042C33.1766 36.8043 33.0878 36.6794 33.0887 36.6443C33.0892 36.6252 33.168 36.5919 33.1669 36.5827C33.1394 36.365 33.0656 36.1726 32.9348 36.009C32.9315 36.0067 32.8488 36.059 32.8422 36.0528C32.7487 35.9681 32.8178 35.842 32.8353 35.7194C32.8527 35.5969 32.7964 35.5387 32.6199 35.5701C32.6043 35.4936 32.4886 35.4359 32.4195 35.4041C32.3503 35.3723 32.5176 35.2694 32.5185 35.2627C32.5495 35.0525 32.4066 35.0206 32.3101 34.8741C32.264 34.8046 32.2132 34.6442 32.191 34.5535C32.1739 34.4816 32.1127 34.4666 32.109 34.3936C32.1085 34.3838 32.1916 34.3478 32.1934 34.3437C32.2545 34.2259 32.0773 34.3648 32.0358 34.3706C31.8848 34.3919 31.8016 34.3996 31.8172 34.2836C31.8206 34.257 32.0724 34.0449 32.0711 34.0005C32.0686 33.9433 31.9764 34.0167 31.9763 33.9554C31.9762 33.9502 32.0391 33.9163 32.0213 33.8883C31.9394 33.7581 31.8261 33.6294 31.7594 33.4839C31.7501 33.4641 31.8636 33.4329 31.8519 33.4034C31.7968 33.2648 31.7198 33.1222 31.6064 33.0205C31.5781 32.9956 31.5165 33.0554 31.4916 33.0604C31.3408 33.0902 31.4977 32.9262 31.4964 32.9143C31.4673 32.6287 31.2029 32.5448 31.1625 32.2597C31.1604 32.2441 31.3169 32.0282 31.116 32.0825C31.1027 32.0859 30.8972 32.1434 31.002 32.0347C31.0086 32.0279 31.1169 32.0032 31.0827 31.9603C31.0484 31.9175 31.0723 31.8046 30.9342 31.7964C30.8908 31.7937 30.6807 31.8469 30.7957 31.7027C30.8035 31.6931 31.0884 31.4106 30.8403 31.5044C30.7994 31.5199 30.5579 31.6618 30.6448 31.5176C30.6618 31.4898 30.7298 31.4853 30.7447 31.4288C30.768 31.3419 30.6629 31.3024 30.7368 31.1704C30.7499 31.1473 30.8914 31.001 30.7425 31.0298C30.7192 31.0343 30.6428 31.0929 30.6222 31.0758C30.5236 30.9948 30.5227 30.853 30.4099 30.7777C30.37 30.7511 30.2446 30.8459 30.1876 30.8266C30.1308 30.8073 30.054 30.7474 30.0947 30.6714C30.1356 30.5953 30.3765 30.5195 30.3622 30.4476C30.3009 30.1344 30.0361 29.9378 29.8783 29.6788C29.855 29.6403 29.9521 29.6289 29.9236 29.569C29.8184 29.3481 29.7055 28.9284 29.4342 28.8369C29.2161 28.764 29.2075 29.0133 29.0903 28.93C29.0338 28.8898 29.2716 28.68 29.2733 28.6618C29.2922 28.4823 29.1255 28.4576 29.1015 28.3189C29.0967 28.2902 29.2194 28.2527 29.2141 28.2289C29.1971 28.1471 29.1096 28.0999 29.084 28.0269C29.0728 27.994 29.1607 27.9523 29.1399 27.9278C29.0911 27.8688 29.0252 27.8293 28.9116 27.8086C28.9012 27.8067 28.8154 27.906 28.7858 27.8587C28.7385 27.7819 28.6072 27.7269 28.6419 27.5889C28.6526 27.5477 28.8498 27.4366 28.683 27.4537C28.6482 27.4572 28.4183 27.6054 28.5886 27.4225C28.6165 27.3921 28.8363 27.1216 28.6278 27.165C28.5729 27.1763 28.357 27.2475 28.3707 27.1975C28.3734 27.1903 28.49 27.1484 28.4865 27.1153C28.4722 26.9995 28.409 26.9051 28.3923 26.7873C28.3881 26.7557 28.5204 26.7326 28.5107 26.6875C28.4842 26.5631 28.3871 26.4435 28.2977 26.3573C28.2645 26.3256 28.1841 26.405 28.1725 26.4078C27.9824 26.4549 28.1935 26.3027 28.199 26.2802C28.2298 26.142 28.0871 26.1292 28.0709 26.0266C28.0662 25.9984 28.1832 25.9551 28.1904 25.945C28.2597 25.8428 28.0838 25.9881 28.0464 25.9686C27.9408 25.9146 27.8993 25.812 27.868 25.7154C27.8566 25.6798 28.0021 25.6459 27.9905 25.6148C27.9246 25.429 27.8216 25.255 27.6646 25.1252C27.6348 25.1009 27.5457 25.1761 27.5197 25.1821C27.3375 25.2248 27.5197 25.0373 27.5326 25.0103C27.5914 24.8875 27.4894 24.9093 27.4743 24.8382C27.4026 24.4895 27.1545 24.1479 26.9713 23.8831C26.7339 23.5373 26.4859 23.3044 26.3297 22.9357C26.3196 22.9123 26.472 22.8567 26.4652 22.8355C26.3715 22.5653 26.1901 22.3489 26.1034 22.0741C26.096 22.0517 26.2473 22.0057 26.2402 21.9671C26.2266 21.8874 26.1759 21.8051 26.0974 21.7606C26.0593 21.7387 25.9645 21.8492 25.9285 21.8259C25.8443 21.7719 25.7914 21.6932 25.7723 21.6002C25.7645 21.5605 25.9321 21.5338 25.9111 21.4882C25.7708 21.1759 25.6459 20.862 25.3022 20.6588C25.2786 20.6448 24.9749 20.7901 25.0081 20.7141C25.0882 20.6652 25.1844 20.6119 25.2711 20.5618C25.093 20.0926 24.7664 19.7119 24.5224 19.2778C24.5122 19.2594 24.6901 19.202 24.6712 19.166C24.5621 18.9574 24.5047 18.7279 24.2325 18.6041C24.2056 18.5916 23.9227 18.7631 23.9339 18.6764C23.9361 18.6609 23.9259 18.5453 23.9763 18.4859C23.9841 18.4773 24.1282 18.4193 24.1166 18.3866C24.0468 18.1984 23.9215 18.0301 23.7471 17.9005C23.7187 17.8797 23.5882 17.9912 23.5666 17.9772C23.4143 17.8771 23.4451 17.6589 23.2399 17.5964C23.1017 17.5551 22.8639 17.7312 22.5861 17.8229C22.5469 17.8359 22.5108 17.7827 22.3624 17.8615C21.9892 18.0595 21.6004 18.3112 21.2008 18.519C21.1344 18.5536 21.1479 18.4871 21.0749 18.5277C21.0749 18.5277 21.0748 18.5277 21.0748 18.5277C21.0533 18.5397 21.0243 18.561 20.9835 18.5969C20.9716 18.6076 20.9353 18.6989 20.8737 18.7506C20.8312 18.7865 20.6723 18.853 20.6221 18.9057C20.572 18.9585 20.7092 18.9095 20.6558 18.9804C20.6015 19.0518 20.4241 19.1324 20.4417 19.205ZM32.1079 35.2609C31.9979 35.2571 32.2983 35.0803 32.2543 35.1752C32.2518 35.18 32.1134 35.2613 32.1079 35.2609ZM35.3265 41.3445C35.1903 41.3353 35.3147 41.2078 35.4175 41.2106C35.5199 41.2137 35.3677 41.3476 35.3265 41.3445ZM35.6218 42.0626C35.5034 42.029 35.8101 41.8427 35.7905 41.9601C35.7895 41.9669 35.6286 42.0646 35.6218 42.0626ZM22.6359 18.0866C22.6286 18.0897 22.5999 18.0531 22.6063 18.0483C22.7595 17.935 22.8164 18.0086 22.6359 18.0866ZM35.9136 42.7758C35.8599 42.7746 35.8691 42.6801 35.936 42.6814C35.9896 42.6826 35.9802 42.7773 35.9136 42.7758ZM30.3459 32.8463C30.3404 32.8483 30.3199 32.822 30.3486 32.8068C30.441 32.758 30.4373 32.8125 30.3459 32.8463ZM36.5372 43.9168C36.4348 43.754 36.1427 43.7832 36.2727 43.9503C36.296 43.9806 36.3066 43.8379 36.3513 43.8683C36.4324 43.9241 36.3162 44.0558 36.4379 44.0911C36.4599 44.0976 36.5434 43.9259 36.5374 43.9163C36.5373 43.9165 36.5373 43.9167 36.5372 43.9168ZM31.7272 35.4353C31.7227 35.4365 31.6966 35.3988 31.7001 35.3956C31.7849 35.3201 31.837 35.3964 31.7272 35.4353ZM29.1924 31.2864C29.1811 31.2898 29.1196 31.2028 29.1272 31.1946C29.2865 31.0428 29.4101 31.219 29.1924 31.2864ZM33.0238 38.2316C32.9621 38.3229 32.982 38.3801 33.1093 38.3546C33.0792 38.3148 33.0537 38.2719 33.0238 38.2316Z" fill="black"/>
</g>
<defs>
<clipPath id="clip0_21_469">
<rect width="56" height="100" fill="white" transform="matrix(-4.37114e-08 1 1 4.37114e-08 2.44784e-06 0)"/>
</clipPath>
</defs>
</svg>
